<mxfile host="app.diagrams.net" modified="2020-09-05T16:41:28.726Z" agent="5.0 (Windows NT 10.0; Win64; x64) AppleWebKit/537.36 (KHTML, like Gecko) Chrome/81.0.4044.113 Safari/537.36" etag="oOqS8k74QXZSSZZsA9cs" version="13.6.6" type="github">
  <diagram id="tld-5ljEHp9aemZ8hjol" name="第 1 页">
    <mxGraphModel dx="1662" dy="763" grid="1" gridSize="10" guides="1" tooltips="1" connect="1" arrows="1" fold="1" page="1" pageScale="1" pageWidth="827" pageHeight="1169" math="0" shadow="0">
      <root>
        <mxCell id="0" />
        <mxCell id="1" parent="0" />
        <mxCell id="Ou7FNNjhHv-HC_c_U_H0-1" value="&lt;h1&gt;生成器模式&lt;/h1&gt;&lt;p&gt;也叫做建造者模式、Builder。&lt;/p&gt;&lt;p&gt;生成器模式是一种创建型设计模式，使你能够分步骤创建负责对象。&lt;/p&gt;&lt;p&gt;该模式允许你使用相同的创建代码生成不同类型和形式的对象（不同方法的组合）。&lt;/p&gt;" style="text;html=1;strokeColor=none;fillColor=none;spacing=5;spacingTop=-20;whiteSpace=wrap;overflow=hidden;rounded=0;" vertex="1" parent="1">
          <mxGeometry x="20" y="10" width="500" height="140" as="geometry" />
        </mxCell>
        <mxCell id="Ou7FNNjhHv-HC_c_U_H0-2" value="&lt;h1&gt;问题&lt;/h1&gt;&lt;p&gt;&lt;font style=&quot;font-size: 12px&quot;&gt;&lt;span style=&quot;color: rgb(68 , 68 , 68) ; font-family: &amp;#34;pt sans&amp;#34; , &amp;#34;helvetica neue&amp;#34; , &amp;#34;arial&amp;#34; , &amp;#34;pingfang sc&amp;#34; , &amp;#34;microsoft yahei&amp;#34; , &amp;#34;hiragino sans gb&amp;#34; , sans-serif ; background-color: rgb(255 , 255 , 255)&quot;&gt;假设有这样一个复杂对象&lt;/span&gt;&lt;span class=&quot;chpule2&quot; style=&quot;box-sizing: inherit ; letter-spacing: -0.6em ; color: rgb(68 , 68 , 68) ; font-family: &amp;#34;pt sans&amp;#34; , &amp;#34;helvetica neue&amp;#34; , &amp;#34;arial&amp;#34; , &amp;#34;pingfang sc&amp;#34; , &amp;#34;microsoft yahei&amp;#34; , &amp;#34;hiragino sans gb&amp;#34; , sans-serif ; background-color: rgb(255 , 255 , 255)&quot;&gt;，&lt;/span&gt;&lt;span class=&quot;chpuri2&quot; style=&quot;box-sizing: inherit ; letter-spacing: 0.4rem ; color: rgb(68 , 68 , 68) ; font-family: &amp;#34;pt sans&amp;#34; , &amp;#34;helvetica neue&amp;#34; , &amp;#34;arial&amp;#34; , &amp;#34;pingfang sc&amp;#34; , &amp;#34;microsoft yahei&amp;#34; , &amp;#34;hiragino sans gb&amp;#34; , sans-serif ; background-color: rgb(255 , 255 , 255)&quot;&gt;&amp;nbsp;&lt;/span&gt;&lt;span style=&quot;color: rgb(68 , 68 , 68) ; font-family: &amp;#34;pt sans&amp;#34; , &amp;#34;helvetica neue&amp;#34; , &amp;#34;arial&amp;#34; , &amp;#34;pingfang sc&amp;#34; , &amp;#34;microsoft yahei&amp;#34; , &amp;#34;hiragino sans gb&amp;#34; , sans-serif ; background-color: rgb(255 , 255 , 255)&quot;&gt;在对其进行构造时需要对诸多成员变量和嵌套对象进行繁复的初始化工作&lt;/span&gt;&lt;span class=&quot;chpule2&quot; style=&quot;box-sizing: inherit ; letter-spacing: -0.6em ; color: rgb(68 , 68 , 68) ; font-family: &amp;#34;pt sans&amp;#34; , &amp;#34;helvetica neue&amp;#34; , &amp;#34;arial&amp;#34; , &amp;#34;pingfang sc&amp;#34; , &amp;#34;microsoft yahei&amp;#34; , &amp;#34;hiragino sans gb&amp;#34; , sans-serif ; background-color: rgb(255 , 255 , 255)&quot;&gt;。&lt;/span&gt;&lt;span class=&quot;chpuri2&quot; style=&quot;box-sizing: inherit ; letter-spacing: 0.4rem ; color: rgb(68 , 68 , 68) ; font-family: &amp;#34;pt sans&amp;#34; , &amp;#34;helvetica neue&amp;#34; , &amp;#34;arial&amp;#34; , &amp;#34;pingfang sc&amp;#34; , &amp;#34;microsoft yahei&amp;#34; , &amp;#34;hiragino sans gb&amp;#34; , sans-serif ; background-color: rgb(255 , 255 , 255)&quot;&gt;&amp;nbsp;&lt;/span&gt;&lt;span style=&quot;color: rgb(68 , 68 , 68) ; font-family: &amp;#34;pt sans&amp;#34; , &amp;#34;helvetica neue&amp;#34; , &amp;#34;arial&amp;#34; , &amp;#34;pingfang sc&amp;#34; , &amp;#34;microsoft yahei&amp;#34; , &amp;#34;hiragino sans gb&amp;#34; , sans-serif ; background-color: rgb(255 , 255 , 255)&quot;&gt;这些初始化代码通常深藏于一个包含众多参数且让人基本看不懂的构造函数中&lt;/span&gt;&lt;span class=&quot;chpule2&quot; style=&quot;box-sizing: inherit ; letter-spacing: -0.6em ; color: rgb(68 , 68 , 68) ; font-family: &amp;#34;pt sans&amp;#34; , &amp;#34;helvetica neue&amp;#34; , &amp;#34;arial&amp;#34; , &amp;#34;pingfang sc&amp;#34; , &amp;#34;microsoft yahei&amp;#34; , &amp;#34;hiragino sans gb&amp;#34; , sans-serif ; background-color: rgb(255 , 255 , 255)&quot;&gt;；&lt;/span&gt;&lt;span class=&quot;chpuri2&quot; style=&quot;box-sizing: inherit ; letter-spacing: 0.4rem ; color: rgb(68 , 68 , 68) ; font-family: &amp;#34;pt sans&amp;#34; , &amp;#34;helvetica neue&amp;#34; , &amp;#34;arial&amp;#34; , &amp;#34;pingfang sc&amp;#34; , &amp;#34;microsoft yahei&amp;#34; , &amp;#34;hiragino sans gb&amp;#34; , sans-serif ; background-color: rgb(255 , 255 , 255)&quot;&gt;&amp;nbsp;&lt;/span&gt;&lt;span style=&quot;color: rgb(68 , 68 , 68) ; font-family: &amp;#34;pt sans&amp;#34; , &amp;#34;helvetica neue&amp;#34; , &amp;#34;arial&amp;#34; , &amp;#34;pingfang sc&amp;#34; , &amp;#34;microsoft yahei&amp;#34; , &amp;#34;hiragino sans gb&amp;#34; , sans-serif ; background-color: rgb(255 , 255 , 255)&quot;&gt;甚至还有更糟糕的情况&lt;/span&gt;&lt;span class=&quot;chpule2&quot; style=&quot;box-sizing: inherit ; letter-spacing: -0.6em ; color: rgb(68 , 68 , 68) ; font-family: &amp;#34;pt sans&amp;#34; , &amp;#34;helvetica neue&amp;#34; , &amp;#34;arial&amp;#34; , &amp;#34;pingfang sc&amp;#34; , &amp;#34;microsoft yahei&amp;#34; , &amp;#34;hiragino sans gb&amp;#34; , sans-serif ; background-color: rgb(255 , 255 , 255)&quot;&gt;，&lt;/span&gt;&lt;span class=&quot;chpuri2&quot; style=&quot;box-sizing: inherit ; letter-spacing: 0.4rem ; color: rgb(68 , 68 , 68) ; font-family: &amp;#34;pt sans&amp;#34; , &amp;#34;helvetica neue&amp;#34; , &amp;#34;arial&amp;#34; , &amp;#34;pingfang sc&amp;#34; , &amp;#34;microsoft yahei&amp;#34; , &amp;#34;hiragino sans gb&amp;#34; , sans-serif ; background-color: rgb(255 , 255 , 255)&quot;&gt;&amp;nbsp;&lt;/span&gt;&lt;span style=&quot;color: rgb(68 , 68 , 68) ; font-family: &amp;#34;pt sans&amp;#34; , &amp;#34;helvetica neue&amp;#34; , &amp;#34;arial&amp;#34; , &amp;#34;pingfang sc&amp;#34; , &amp;#34;microsoft yahei&amp;#34; , &amp;#34;hiragino sans gb&amp;#34; , sans-serif ; background-color: rgb(255 , 255 , 255)&quot;&gt;那就是这些代码散落在客户端代码的多个位置&lt;/span&gt;&lt;span class=&quot;chpule2&quot; style=&quot;box-sizing: inherit ; letter-spacing: -0.6em ; color: rgb(68 , 68 , 68) ; font-family: &amp;#34;pt sans&amp;#34; , &amp;#34;helvetica neue&amp;#34; , &amp;#34;arial&amp;#34; , &amp;#34;pingfang sc&amp;#34; , &amp;#34;microsoft yahei&amp;#34; , &amp;#34;hiragino sans gb&amp;#34; , sans-serif ; background-color: rgb(255 , 255 , 255)&quot;&gt;。&lt;/span&gt;&lt;/font&gt;&lt;br&gt;&lt;/p&gt;&lt;p&gt;&lt;font&gt;&lt;span class=&quot;chpule2&quot; style=&quot;box-sizing: inherit ; letter-spacing: -0.6em ; color: rgb(68 , 68 , 68) ; font-family: &amp;#34;pt sans&amp;#34; , &amp;#34;helvetica neue&amp;#34; , &amp;#34;arial&amp;#34; , &amp;#34;pingfang sc&amp;#34; , &amp;#34;microsoft yahei&amp;#34; , &amp;#34;hiragino sans gb&amp;#34; , sans-serif ; background-color: rgb(255 , 255 , 255)&quot;&gt;&lt;font style=&quot;font-size: 12px&quot;&gt;&lt;span style=&quot;font-family: &amp;#34;pt sans&amp;#34; , &amp;#34;helvetica neue&amp;#34; , &amp;#34;arial&amp;#34; , &amp;#34;pingfang sc&amp;#34; , &amp;#34;microsoft yahei&amp;#34; , &amp;#34;hiragino sans gb&amp;#34; , sans-serif ; letter-spacing: normal&quot;&gt;例如&lt;/span&gt;&lt;span class=&quot;chpule2&quot; style=&quot;box-sizing: inherit ; letter-spacing: -0.6em ; font-family: &amp;#34;pt sans&amp;#34; , &amp;#34;helvetica neue&amp;#34; , &amp;#34;arial&amp;#34; , &amp;#34;pingfang sc&amp;#34; , &amp;#34;microsoft yahei&amp;#34; , &amp;#34;hiragino sans gb&amp;#34; , sans-serif&quot;&gt;，&lt;/span&gt;&lt;span class=&quot;chpuri2&quot; style=&quot;box-sizing: inherit ; letter-spacing: 0.4rem ; font-family: &amp;#34;pt sans&amp;#34; , &amp;#34;helvetica neue&amp;#34; , &amp;#34;arial&amp;#34; , &amp;#34;pingfang sc&amp;#34; , &amp;#34;microsoft yahei&amp;#34; , &amp;#34;hiragino sans gb&amp;#34; , sans-serif&quot;&gt;&amp;nbsp;&lt;/span&gt;&lt;span style=&quot;font-family: &amp;#34;pt sans&amp;#34; , &amp;#34;helvetica neue&amp;#34; , &amp;#34;arial&amp;#34; , &amp;#34;pingfang sc&amp;#34; , &amp;#34;microsoft yahei&amp;#34; , &amp;#34;hiragino sans gb&amp;#34; , sans-serif ; letter-spacing: normal&quot;&gt;我们来思考如何创建一个&lt;/span&gt;&lt;span class=&quot;chpule1&quot; style=&quot;box-sizing: inherit ; letter-spacing: 0.25rem ; font-family: &amp;#34;pt sans&amp;#34; , &amp;#34;helvetica neue&amp;#34; , &amp;#34;arial&amp;#34; , &amp;#34;pingfang sc&amp;#34; , &amp;#34;microsoft yahei&amp;#34; , &amp;#34;hiragino sans gb&amp;#34; , sans-serif&quot;&gt;&amp;nbsp;&lt;/span&gt;&lt;span class=&quot;code-pair ml&quot; style=&quot;box-sizing: inherit ; margin-left: -0.5em ; font-family: &amp;#34;pt sans&amp;#34; , &amp;#34;helvetica neue&amp;#34; , &amp;#34;arial&amp;#34; , &amp;#34;pingfang sc&amp;#34; , &amp;#34;microsoft yahei&amp;#34; , &amp;#34;hiragino sans gb&amp;#34; , sans-serif ; letter-spacing: normal&quot;&gt;&lt;code class=&quot;with-parentheses&quot; style=&quot;box-sizing: inherit ; font-family: &amp;#34;menlo&amp;#34; , &amp;#34;fira code&amp;#34; , &amp;#34;monaco&amp;#34; , &amp;#34;consolas&amp;#34; , &amp;#34;courier new&amp;#34; , monospace ; line-height: 1.5 ; padding: 0px 1rem 0px 0.5rem ; border-radius: 50px 0px 0px 50px ; vertical-align: baseline ; background: rgb(238 , 238 , 238) ; word-break: keep-all ; overflow-wrap: normal ; display: inline-block ; margin-left: 0px&quot;&gt;房屋&lt;/code&gt;&lt;span class=&quot;code-parentheses&quot; style=&quot;box-sizing: inherit ; font-family: &amp;#34;menlo&amp;#34; , &amp;#34;fira code&amp;#34; , &amp;#34;monaco&amp;#34; , &amp;#34;consolas&amp;#34; , &amp;#34;courier new&amp;#34; , monospace ; display: inline-block ; line-height: 1.5 ; vertical-align: baseline ; padding: 0px 0.5rem ; background: rgb(221 , 221 , 221) ; border-radius: 50px ; margin-left: -0.5rem&quot;&gt;House&lt;/span&gt;&lt;/span&gt;&lt;span style=&quot;font-family: &amp;#34;pt sans&amp;#34; , &amp;#34;helvetica neue&amp;#34; , &amp;#34;arial&amp;#34; , &amp;#34;pingfang sc&amp;#34; , &amp;#34;microsoft yahei&amp;#34; , &amp;#34;hiragino sans gb&amp;#34; , sans-serif ; letter-spacing: normal&quot;&gt;对象&lt;/span&gt;&lt;span class=&quot;chpule2&quot; style=&quot;box-sizing: inherit ; letter-spacing: -0.6em ; font-family: &amp;#34;pt sans&amp;#34; , &amp;#34;helvetica neue&amp;#34; , &amp;#34;arial&amp;#34; , &amp;#34;pingfang sc&amp;#34; , &amp;#34;microsoft yahei&amp;#34; , &amp;#34;hiragino sans gb&amp;#34; , sans-serif&quot;&gt;。&lt;/span&gt;&lt;span class=&quot;chpuri2&quot; style=&quot;box-sizing: inherit ; letter-spacing: 0.4rem ; font-family: &amp;#34;pt sans&amp;#34; , &amp;#34;helvetica neue&amp;#34; , &amp;#34;arial&amp;#34; , &amp;#34;pingfang sc&amp;#34; , &amp;#34;microsoft yahei&amp;#34; , &amp;#34;hiragino sans gb&amp;#34; , sans-serif&quot;&gt;&amp;nbsp;&lt;/span&gt;&lt;span style=&quot;font-family: &amp;#34;pt sans&amp;#34; , &amp;#34;helvetica neue&amp;#34; , &amp;#34;arial&amp;#34; , &amp;#34;pingfang sc&amp;#34; , &amp;#34;microsoft yahei&amp;#34; , &amp;#34;hiragino sans gb&amp;#34; , sans-serif ; letter-spacing: normal&quot;&gt;建造一栋简单的房屋&lt;/span&gt;&lt;span class=&quot;chpule2&quot; style=&quot;box-sizing: inherit ; letter-spacing: -0.6em ; font-family: &amp;#34;pt sans&amp;#34; , &amp;#34;helvetica neue&amp;#34; , &amp;#34;arial&amp;#34; , &amp;#34;pingfang sc&amp;#34; , &amp;#34;microsoft yahei&amp;#34; , &amp;#34;hiragino sans gb&amp;#34; , sans-serif&quot;&gt;，&lt;/span&gt;&lt;span class=&quot;chpuri2&quot; style=&quot;box-sizing: inherit ; letter-spacing: 0.4rem ; font-family: &amp;#34;pt sans&amp;#34; , &amp;#34;helvetica neue&amp;#34; , &amp;#34;arial&amp;#34; , &amp;#34;pingfang sc&amp;#34; , &amp;#34;microsoft yahei&amp;#34; , &amp;#34;hiragino sans gb&amp;#34; , sans-serif&quot;&gt;&amp;nbsp;&lt;/span&gt;&lt;span style=&quot;font-family: &amp;#34;pt sans&amp;#34; , &amp;#34;helvetica neue&amp;#34; , &amp;#34;arial&amp;#34; , &amp;#34;pingfang sc&amp;#34; , &amp;#34;microsoft yahei&amp;#34; , &amp;#34;hiragino sans gb&amp;#34; , sans-serif ; letter-spacing: normal&quot;&gt;首先你需要建造四面墙和地板&lt;/span&gt;&lt;span class=&quot;chpule2&quot; style=&quot;box-sizing: inherit ; letter-spacing: -0.6em ; font-family: &amp;#34;pt sans&amp;#34; , &amp;#34;helvetica neue&amp;#34; , &amp;#34;arial&amp;#34; , &amp;#34;pingfang sc&amp;#34; , &amp;#34;microsoft yahei&amp;#34; , &amp;#34;hiragino sans gb&amp;#34; , sans-serif&quot;&gt;，&lt;/span&gt;&lt;span class=&quot;chpuri2&quot; style=&quot;box-sizing: inherit ; letter-spacing: 0.4rem ; font-family: &amp;#34;pt sans&amp;#34; , &amp;#34;helvetica neue&amp;#34; , &amp;#34;arial&amp;#34; , &amp;#34;pingfang sc&amp;#34; , &amp;#34;microsoft yahei&amp;#34; , &amp;#34;hiragino sans gb&amp;#34; , sans-serif&quot;&gt;&amp;nbsp;&lt;/span&gt;&lt;span style=&quot;font-family: &amp;#34;pt sans&amp;#34; , &amp;#34;helvetica neue&amp;#34; , &amp;#34;arial&amp;#34; , &amp;#34;pingfang sc&amp;#34; , &amp;#34;microsoft yahei&amp;#34; , &amp;#34;hiragino sans gb&amp;#34; , sans-serif ; letter-spacing: normal&quot;&gt;安装房门和一套窗户&lt;/span&gt;&lt;span class=&quot;chpule2&quot; style=&quot;box-sizing: inherit ; letter-spacing: -0.6em ; font-family: &amp;#34;pt sans&amp;#34; , &amp;#34;helvetica neue&amp;#34; , &amp;#34;arial&amp;#34; , &amp;#34;pingfang sc&amp;#34; , &amp;#34;microsoft yahei&amp;#34; , &amp;#34;hiragino sans gb&amp;#34; , sans-serif&quot;&gt;，&lt;/span&gt;&lt;span class=&quot;chpuri2&quot; style=&quot;box-sizing: inherit ; letter-spacing: 0.4rem ; font-family: &amp;#34;pt sans&amp;#34; , &amp;#34;helvetica neue&amp;#34; , &amp;#34;arial&amp;#34; , &amp;#34;pingfang sc&amp;#34; , &amp;#34;microsoft yahei&amp;#34; , &amp;#34;hiragino sans gb&amp;#34; , sans-serif&quot;&gt;&amp;nbsp;&lt;/span&gt;&lt;span style=&quot;font-family: &amp;#34;pt sans&amp;#34; , &amp;#34;helvetica neue&amp;#34; , &amp;#34;arial&amp;#34; , &amp;#34;pingfang sc&amp;#34; , &amp;#34;microsoft yahei&amp;#34; , &amp;#34;hiragino sans gb&amp;#34; , sans-serif ; letter-spacing: normal&quot;&gt;然后再建造一个屋顶&lt;/span&gt;&lt;span class=&quot;chpule2&quot; style=&quot;box-sizing: inherit ; letter-spacing: -0.6em ; font-family: &amp;#34;pt sans&amp;#34; , &amp;#34;helvetica neue&amp;#34; , &amp;#34;arial&amp;#34; , &amp;#34;pingfang sc&amp;#34; , &amp;#34;microsoft yahei&amp;#34; , &amp;#34;hiragino sans gb&amp;#34; , sans-serif&quot;&gt;。&lt;/span&gt;&lt;span class=&quot;chpuri2&quot; style=&quot;box-sizing: inherit ; letter-spacing: 0.4rem ; font-family: &amp;#34;pt sans&amp;#34; , &amp;#34;helvetica neue&amp;#34; , &amp;#34;arial&amp;#34; , &amp;#34;pingfang sc&amp;#34; , &amp;#34;microsoft yahei&amp;#34; , &amp;#34;hiragino sans gb&amp;#34; , sans-serif&quot;&gt;&amp;nbsp;&lt;/span&gt;&lt;span style=&quot;font-family: &amp;#34;pt sans&amp;#34; , &amp;#34;helvetica neue&amp;#34; , &amp;#34;arial&amp;#34; , &amp;#34;pingfang sc&amp;#34; , &amp;#34;microsoft yahei&amp;#34; , &amp;#34;hiragino sans gb&amp;#34; , sans-serif ; letter-spacing: normal&quot;&gt;但是如果你想要一栋更宽敞更明亮的房屋&lt;/span&gt;&lt;span class=&quot;chpule2&quot; style=&quot;box-sizing: inherit ; letter-spacing: -0.6em ; font-family: &amp;#34;pt sans&amp;#34; , &amp;#34;helvetica neue&amp;#34; , &amp;#34;arial&amp;#34; , &amp;#34;pingfang sc&amp;#34; , &amp;#34;microsoft yahei&amp;#34; , &amp;#34;hiragino sans gb&amp;#34; , sans-serif&quot;&gt;，&lt;/span&gt;&lt;span class=&quot;chpuri2&quot; style=&quot;box-sizing: inherit ; letter-spacing: 0.4rem ; font-family: &amp;#34;pt sans&amp;#34; , &amp;#34;helvetica neue&amp;#34; , &amp;#34;arial&amp;#34; , &amp;#34;pingfang sc&amp;#34; , &amp;#34;microsoft yahei&amp;#34; , &amp;#34;hiragino sans gb&amp;#34; , sans-serif&quot;&gt;&amp;nbsp;&lt;/span&gt;&lt;span style=&quot;font-family: &amp;#34;pt sans&amp;#34; , &amp;#34;helvetica neue&amp;#34; , &amp;#34;arial&amp;#34; , &amp;#34;pingfang sc&amp;#34; , &amp;#34;microsoft yahei&amp;#34; , &amp;#34;hiragino sans gb&amp;#34; , sans-serif ; letter-spacing: normal&quot;&gt;还要有院子和其他设施&lt;/span&gt;&lt;span class=&quot;chpule1&quot; style=&quot;box-sizing: inherit ; letter-spacing: 0.25rem ; font-family: &amp;#34;pt sans&amp;#34; , &amp;#34;helvetica neue&amp;#34; , &amp;#34;arial&amp;#34; , &amp;#34;pingfang sc&amp;#34; , &amp;#34;microsoft yahei&amp;#34; , &amp;#34;hiragino sans gb&amp;#34; , sans-serif&quot;&gt;&amp;nbsp;&lt;/span&gt;&lt;span class=&quot;chpuri1&quot; style=&quot;box-sizing: inherit ; margin-left: -0.5em ; font-family: &amp;#34;pt sans&amp;#34; , &amp;#34;helvetica neue&amp;#34; , &amp;#34;arial&amp;#34; , &amp;#34;pingfang sc&amp;#34; , &amp;#34;microsoft yahei&amp;#34; , &amp;#34;hiragino sans gb&amp;#34; , sans-serif ; letter-spacing: normal&quot;&gt;（&lt;/span&gt;&lt;span style=&quot;font-family: &amp;#34;pt sans&amp;#34; , &amp;#34;helvetica neue&amp;#34; , &amp;#34;arial&amp;#34; , &amp;#34;pingfang sc&amp;#34; , &amp;#34;microsoft yahei&amp;#34; , &amp;#34;hiragino sans gb&amp;#34; , sans-serif ; letter-spacing: normal&quot;&gt;例如暖气&lt;/span&gt;&lt;span class=&quot;chpule2&quot; style=&quot;box-sizing: inherit ; letter-spacing: -0.6em ; font-family: &amp;#34;pt sans&amp;#34; , &amp;#34;helvetica neue&amp;#34; , &amp;#34;arial&amp;#34; , &amp;#34;pingfang sc&amp;#34; , &amp;#34;microsoft yahei&amp;#34; , &amp;#34;hiragino sans gb&amp;#34; , sans-serif&quot;&gt;、&lt;/span&gt;&lt;span class=&quot;chpuri2&quot; style=&quot;box-sizing: inherit ; letter-spacing: 0.4rem ; font-family: &amp;#34;pt sans&amp;#34; , &amp;#34;helvetica neue&amp;#34; , &amp;#34;arial&amp;#34; , &amp;#34;pingfang sc&amp;#34; , &amp;#34;microsoft yahei&amp;#34; , &amp;#34;hiragino sans gb&amp;#34; , sans-serif&quot;&gt;&amp;nbsp;&lt;/span&gt;&lt;span style=&quot;font-family: &amp;#34;pt sans&amp;#34; , &amp;#34;helvetica neue&amp;#34; , &amp;#34;arial&amp;#34; , &amp;#34;pingfang sc&amp;#34; , &amp;#34;microsoft yahei&amp;#34; , &amp;#34;hiragino sans gb&amp;#34; , sans-serif ; letter-spacing: normal&quot;&gt;排水和供电设备&lt;/span&gt;&lt;span class=&quot;ls-05&quot; style=&quot;box-sizing: inherit ; letter-spacing: -0.5em ; font-family: &amp;#34;pt sans&amp;#34; , &amp;#34;helvetica neue&amp;#34; , &amp;#34;arial&amp;#34; , &amp;#34;pingfang sc&amp;#34; , &amp;#34;microsoft yahei&amp;#34; , &amp;#34;hiragino sans gb&amp;#34; , sans-serif&quot;&gt;）&lt;/span&gt;&lt;span class=&quot;chpule2&quot; style=&quot;box-sizing: inherit ; letter-spacing: -0.6em ; font-family: &amp;#34;pt sans&amp;#34; , &amp;#34;helvetica neue&amp;#34; , &amp;#34;arial&amp;#34; , &amp;#34;pingfang sc&amp;#34; , &amp;#34;microsoft yahei&amp;#34; , &amp;#34;hiragino sans gb&amp;#34; , sans-serif&quot;&gt;，&lt;/span&gt;&lt;span class=&quot;chpuri2&quot; style=&quot;box-sizing: inherit ; letter-spacing: 0.4rem ; font-family: &amp;#34;pt sans&amp;#34; , &amp;#34;helvetica neue&amp;#34; , &amp;#34;arial&amp;#34; , &amp;#34;pingfang sc&amp;#34; , &amp;#34;microsoft yahei&amp;#34; , &amp;#34;hiragino sans gb&amp;#34; , sans-serif&quot;&gt;&amp;nbsp;&lt;/span&gt;&lt;span style=&quot;font-family: &amp;#34;pt sans&amp;#34; , &amp;#34;helvetica neue&amp;#34; , &amp;#34;arial&amp;#34; , &amp;#34;pingfang sc&amp;#34; , &amp;#34;microsoft yahei&amp;#34; , &amp;#34;hiragino sans gb&amp;#34; , sans-serif ; letter-spacing: normal&quot;&gt;那又该怎么办呢&lt;/span&gt;&lt;span class=&quot;chpule2&quot; style=&quot;box-sizing: inherit ; letter-spacing: -0.6em ; font-family: &amp;#34;pt sans&amp;#34; , &amp;#34;helvetica neue&amp;#34; , &amp;#34;arial&amp;#34; , &amp;#34;pingfang sc&amp;#34; , &amp;#34;microsoft yahei&amp;#34; , &amp;#34;hiragino sans gb&amp;#34; , sans-serif&quot;&gt;？&lt;/span&gt;&lt;/font&gt;&lt;br&gt;&lt;/span&gt;&lt;/font&gt;&lt;/p&gt;&lt;p&gt;&lt;font&gt;&lt;span class=&quot;chpule2&quot; style=&quot;box-sizing: inherit ; letter-spacing: -0.6em ; color: rgb(68 , 68 , 68) ; font-family: &amp;#34;pt sans&amp;#34; , &amp;#34;helvetica neue&amp;#34; , &amp;#34;arial&amp;#34; , &amp;#34;pingfang sc&amp;#34; , &amp;#34;microsoft yahei&amp;#34; , &amp;#34;hiragino sans gb&amp;#34; , sans-serif ; background-color: rgb(255 , 255 , 255)&quot;&gt;&lt;font style=&quot;font-size: 12px&quot;&gt;&lt;span class=&quot;chpule2&quot; style=&quot;box-sizing: inherit ; letter-spacing: -0.6em ; font-family: &amp;#34;pt sans&amp;#34; , &amp;#34;helvetica neue&amp;#34; , &amp;#34;arial&amp;#34; , &amp;#34;pingfang sc&amp;#34; , &amp;#34;microsoft yahei&amp;#34; , &amp;#34;hiragino sans gb&amp;#34; , sans-serif&quot;&gt;&lt;br&gt;&lt;/span&gt;&lt;/font&gt;&lt;/span&gt;&lt;/font&gt;&lt;/p&gt;&lt;p style=&quot;box-sizing: inherit ; margin-top: 0px ; margin-bottom: 1.5rem ; color: rgb(68 , 68 , 68) ; font-family: &amp;#34;pt sans&amp;#34; , &amp;#34;helvetica neue&amp;#34; , &amp;#34;arial&amp;#34; , &amp;#34;pingfang sc&amp;#34; , &amp;#34;microsoft yahei&amp;#34; , &amp;#34;hiragino sans gb&amp;#34; , sans-serif ; background-color: rgb(255 , 255 , 255)&quot;&gt;&lt;font style=&quot;font-size: 12px&quot;&gt;最简单的方法是扩展&lt;span class=&quot;chpule1&quot; style=&quot;box-sizing: inherit ; letter-spacing: 0.25rem&quot;&gt;&amp;nbsp;&lt;/span&gt;&lt;code class=&quot;ml&quot; style=&quot;box-sizing: inherit ; font-family: &amp;#34;menlo&amp;#34; , &amp;#34;fira code&amp;#34; , &amp;#34;monaco&amp;#34; , &amp;#34;consolas&amp;#34; , &amp;#34;courier new&amp;#34; , monospace ; line-height: 1.5 ; padding: 0px 0.5rem ; border-radius: 50px ; vertical-align: baseline ; background: rgb(238 , 238 , 238) ; margin-left: -0.5em ; word-break: keep-all ; overflow-wrap: normal ; display: inline-block&quot;&gt;房屋&lt;/code&gt;基类&lt;span class=&quot;chpule2&quot; style=&quot;box-sizing: inherit ; letter-spacing: -0.6em&quot;&gt;，&lt;/span&gt;&lt;span class=&quot;chpuri2&quot; style=&quot;box-sizing: inherit ; letter-spacing: 0.4rem&quot;&gt;&amp;nbsp;&lt;/span&gt;然后创建一系列涵盖所有参数组合的子类&lt;span class=&quot;chpule2&quot; style=&quot;box-sizing: inherit ; letter-spacing: -0.6em&quot;&gt;。&lt;/span&gt;&lt;span class=&quot;chpuri2&quot; style=&quot;box-sizing: inherit ; letter-spacing: 0.4rem&quot;&gt;&amp;nbsp;&lt;/span&gt;但最终你将面对相当数量的子类&lt;span class=&quot;chpule2&quot; style=&quot;box-sizing: inherit ; letter-spacing: -0.6em&quot;&gt;。&lt;/span&gt;&lt;span class=&quot;chpuri2&quot; style=&quot;box-sizing: inherit ; letter-spacing: 0.4rem&quot;&gt;&amp;nbsp;&lt;/span&gt;任何新增的参数&lt;span class=&quot;chpule1&quot; style=&quot;box-sizing: inherit ; letter-spacing: 0.25rem&quot;&gt;&amp;nbsp;&lt;/span&gt;&lt;span class=&quot;chpuri1&quot; style=&quot;box-sizing: inherit ; margin-left: -0.5em&quot;&gt;（&lt;/span&gt;例如门廊类型&lt;span class=&quot;chpule2&quot; style=&quot;box-sizing: inherit ; letter-spacing: -0.6em&quot;&gt;）&lt;/span&gt;&lt;span class=&quot;chpuri2&quot; style=&quot;box-sizing: inherit ; letter-spacing: 0.4rem&quot;&gt;&amp;nbsp;&lt;/span&gt;都会让这个层次结构更加复杂&lt;span class=&quot;chpule2&quot; style=&quot;box-sizing: inherit ; letter-spacing: -0.6em&quot;&gt;。&lt;/span&gt;&lt;span class=&quot;chpuri2&quot; style=&quot;box-sizing: inherit ; letter-spacing: 0.4rem&quot;&gt;&lt;/span&gt;&lt;/font&gt;&lt;/p&gt;&lt;p&gt;&lt;span class=&quot;chpule2&quot; style=&quot;box-sizing: inherit ; letter-spacing: -0.6em ; color: rgb(68 , 68 , 68) ; font-family: &amp;#34;pt sans&amp;#34; , &amp;#34;helvetica neue&amp;#34; , &amp;#34;arial&amp;#34; , &amp;#34;pingfang sc&amp;#34; , &amp;#34;microsoft yahei&amp;#34; , &amp;#34;hiragino sans gb&amp;#34; , sans-serif ; background-color: rgb(255 , 255 , 255)&quot;&gt;&lt;font style=&quot;font-size: 12px&quot;&gt;&lt;span class=&quot;chpule2&quot; style=&quot;box-sizing: inherit ; letter-spacing: -0.6em&quot;&gt;&lt;/span&gt;&lt;/font&gt;&lt;/span&gt;&lt;/p&gt;&lt;p style=&quot;box-sizing: inherit ; margin-top: 0px ; margin-bottom: 1.5rem ; color: rgb(68 , 68 , 68) ; font-family: &amp;#34;pt sans&amp;#34; , &amp;#34;helvetica neue&amp;#34; , &amp;#34;arial&amp;#34; , &amp;#34;pingfang sc&amp;#34; , &amp;#34;microsoft yahei&amp;#34; , &amp;#34;hiragino sans gb&amp;#34; , sans-serif ; background-color: rgb(255 , 255 , 255)&quot;&gt;&lt;font style=&quot;font-size: 12px&quot;&gt;另一种方法则无需生成子类&lt;span class=&quot;chpule2&quot; style=&quot;box-sizing: inherit ; letter-spacing: -0.6em&quot;&gt;。&lt;/span&gt;&lt;span class=&quot;chpuri2&quot; style=&quot;box-sizing: inherit ; letter-spacing: 0.4rem&quot;&gt;&amp;nbsp;&lt;/span&gt;你可以在&lt;span class=&quot;chpule1&quot; style=&quot;box-sizing: inherit ; letter-spacing: 0.25rem&quot;&gt;&amp;nbsp;&lt;/span&gt;&lt;code class=&quot;ml&quot; style=&quot;box-sizing: inherit ; font-family: &amp;#34;menlo&amp;#34; , &amp;#34;fira code&amp;#34; , &amp;#34;monaco&amp;#34; , &amp;#34;consolas&amp;#34; , &amp;#34;courier new&amp;#34; , monospace ; line-height: 1.5 ; padding: 0px 0.5rem ; border-radius: 50px ; vertical-align: baseline ; background: rgb(238 , 238 , 238) ; margin-left: -0.5em ; word-break: keep-all ; overflow-wrap: normal ; display: inline-block&quot;&gt;房屋&lt;/code&gt;基类中创建一个包括所有可能参数的超级构造函数&lt;span class=&quot;chpule2&quot; style=&quot;box-sizing: inherit ; letter-spacing: -0.6em&quot;&gt;，&lt;/span&gt;&lt;span class=&quot;chpuri2&quot; style=&quot;box-sizing: inherit ; letter-spacing: 0.4rem&quot;&gt;&amp;nbsp;&lt;/span&gt;并用它来控制房屋对象&lt;span class=&quot;chpule2&quot; style=&quot;box-sizing: inherit ; letter-spacing: -0.6em&quot;&gt;。&lt;/span&gt;&lt;span class=&quot;chpuri2&quot; style=&quot;box-sizing: inherit ; letter-spacing: 0.4rem&quot;&gt;&amp;nbsp;&lt;/span&gt;这种方法确实可以避免生成子类&lt;span class=&quot;chpule2&quot; style=&quot;box-sizing: inherit ; letter-spacing: -0.6em&quot;&gt;，&lt;/span&gt;&lt;span class=&quot;chpuri2&quot; style=&quot;box-sizing: inherit ; letter-spacing: 0.4rem&quot;&gt;&amp;nbsp;&lt;/span&gt;但它却会造成另外一个问题&lt;span class=&quot;chpule2&quot; style=&quot;box-sizing: inherit ; letter-spacing: -0.6em&quot;&gt;。&lt;/span&gt;&lt;/font&gt;&lt;/p&gt;&lt;p style=&quot;box-sizing: inherit ; margin-top: 0px ; margin-bottom: 1.5rem ; color: rgb(68 , 68 , 68) ; font-family: &amp;#34;pt sans&amp;#34; , &amp;#34;helvetica neue&amp;#34; , &amp;#34;arial&amp;#34; , &amp;#34;pingfang sc&amp;#34; , &amp;#34;microsoft yahei&amp;#34; , &amp;#34;hiragino sans gb&amp;#34; , sans-serif ; background-color: rgb(255 , 255 , 255)&quot;&gt;&lt;font&gt;&lt;span class=&quot;chpule2&quot; style=&quot;box-sizing: inherit ; letter-spacing: -0.6em&quot;&gt;&lt;font style=&quot;font-size: 12px&quot;&gt;&lt;span style=&quot;color: rgb(153 , 153 , 153) ; letter-spacing: normal ; text-align: center&quot;&gt;拥有大量输入参数的构造函数也有缺陷&lt;/span&gt;&lt;span class=&quot;chpule2&quot; style=&quot;box-sizing: inherit ; letter-spacing: -0.6em ; color: rgb(153 , 153 , 153) ; text-align: center&quot;&gt;：&lt;/span&gt;&lt;span class=&quot;chpuri2&quot; style=&quot;box-sizing: inherit ; letter-spacing: 0.4rem ; color: rgb(153 , 153 , 153) ; text-align: center&quot;&gt;&amp;nbsp;&lt;/span&gt;&lt;span style=&quot;color: rgb(153 , 153 , 153) ; letter-spacing: normal ; text-align: center&quot;&gt;这些参数也不是每次都要全部用上的&lt;/span&gt;&lt;span class=&quot;chpule2&quot; style=&quot;box-sizing: inherit ; letter-spacing: -0.6em ; color: rgb(153 , 153 , 153) ; text-align: center&quot;&gt;。&lt;/span&gt;&lt;/font&gt;&lt;br&gt;&lt;/span&gt;&lt;/font&gt;&lt;/p&gt;&lt;p style=&quot;box-sizing: inherit ; margin-top: 0px ; margin-bottom: 1.5rem ; color: rgb(68 , 68 , 68) ; font-family: &amp;#34;pt sans&amp;#34; , &amp;#34;helvetica neue&amp;#34; , &amp;#34;arial&amp;#34; , &amp;#34;pingfang sc&amp;#34; , &amp;#34;microsoft yahei&amp;#34; , &amp;#34;hiragino sans gb&amp;#34; , sans-serif ; background-color: rgb(255 , 255 , 255)&quot;&gt;&lt;font&gt;&lt;span class=&quot;chpule2&quot; style=&quot;box-sizing: inherit ; letter-spacing: -0.6em&quot;&gt;&lt;font style=&quot;font-size: 12px&quot;&gt;&lt;span style=&quot;font-family: &amp;#34;pt sans&amp;#34; , &amp;#34;helvetica neue&amp;#34; , &amp;#34;arial&amp;#34; , &amp;#34;pingfang sc&amp;#34; , &amp;#34;microsoft yahei&amp;#34; , &amp;#34;hiragino sans gb&amp;#34; , sans-serif ; letter-spacing: normal&quot;&gt;通常情况下&lt;/span&gt;&lt;span class=&quot;chpule2&quot; style=&quot;box-sizing: inherit ; letter-spacing: -0.6em ; font-family: &amp;#34;pt sans&amp;#34; , &amp;#34;helvetica neue&amp;#34; , &amp;#34;arial&amp;#34; , &amp;#34;pingfang sc&amp;#34; , &amp;#34;microsoft yahei&amp;#34; , &amp;#34;hiragino sans gb&amp;#34; , sans-serif&quot;&gt;，&lt;/span&gt;&lt;span class=&quot;chpuri2&quot; style=&quot;box-sizing: inherit ; letter-spacing: 0.4rem ; font-family: &amp;#34;pt sans&amp;#34; , &amp;#34;helvetica neue&amp;#34; , &amp;#34;arial&amp;#34; , &amp;#34;pingfang sc&amp;#34; , &amp;#34;microsoft yahei&amp;#34; , &amp;#34;hiragino sans gb&amp;#34; , sans-serif&quot;&gt;&amp;nbsp;&lt;/span&gt;&lt;span style=&quot;font-family: &amp;#34;pt sans&amp;#34; , &amp;#34;helvetica neue&amp;#34; , &amp;#34;arial&amp;#34; , &amp;#34;pingfang sc&amp;#34; , &amp;#34;microsoft yahei&amp;#34; , &amp;#34;hiragino sans gb&amp;#34; , sans-serif ; letter-spacing: normal&quot;&gt;绝大部分的参数都没有使用&lt;/span&gt;&lt;span class=&quot;chpule2&quot; style=&quot;box-sizing: inherit ; letter-spacing: -0.6em ; font-family: &amp;#34;pt sans&amp;#34; , &amp;#34;helvetica neue&amp;#34; , &amp;#34;arial&amp;#34; , &amp;#34;pingfang sc&amp;#34; , &amp;#34;microsoft yahei&amp;#34; , &amp;#34;hiragino sans gb&amp;#34; , sans-serif&quot;&gt;，&lt;/span&gt;&lt;span class=&quot;chpuri2&quot; style=&quot;box-sizing: inherit ; letter-spacing: 0.4rem ; font-family: &amp;#34;pt sans&amp;#34; , &amp;#34;helvetica neue&amp;#34; , &amp;#34;arial&amp;#34; , &amp;#34;pingfang sc&amp;#34; , &amp;#34;microsoft yahei&amp;#34; , &amp;#34;hiragino sans gb&amp;#34; , sans-serif&quot;&gt;&amp;nbsp;&lt;/span&gt;&lt;span style=&quot;font-family: &amp;#34;pt sans&amp;#34; , &amp;#34;helvetica neue&amp;#34; , &amp;#34;arial&amp;#34; , &amp;#34;pingfang sc&amp;#34; , &amp;#34;microsoft yahei&amp;#34; , &amp;#34;hiragino sans gb&amp;#34; , sans-serif ; letter-spacing: normal&quot;&gt;这使得&lt;/span&gt;&lt;a href=&quot;https://refactoringguru.cn/smells/long-parameter-list&quot; style=&quot;box-sizing: inherit ; color: rgb(79 , 31 , 70) ; font-weight: 700 ; box-shadow: rgb(242 , 159 , 151) 0px -2px 0px inset ; font-family: &amp;#34;pt sans&amp;#34; , &amp;#34;helvetica neue&amp;#34; , &amp;#34;arial&amp;#34; , &amp;#34;pingfang sc&amp;#34; , &amp;#34;microsoft yahei&amp;#34; , &amp;#34;hiragino sans gb&amp;#34; , sans-serif ; letter-spacing: normal&quot;&gt;对于构造函数的调用十分不简洁&lt;/a&gt;&lt;span class=&quot;chpule2&quot; style=&quot;box-sizing: inherit ; letter-spacing: -0.6em ; font-family: &amp;#34;pt sans&amp;#34; , &amp;#34;helvetica neue&amp;#34; , &amp;#34;arial&amp;#34; , &amp;#34;pingfang sc&amp;#34; , &amp;#34;microsoft yahei&amp;#34; , &amp;#34;hiragino sans gb&amp;#34; , sans-serif&quot;&gt;。&lt;/span&gt;&lt;span class=&quot;chpuri2&quot; style=&quot;box-sizing: inherit ; letter-spacing: 0.4rem ; font-family: &amp;#34;pt sans&amp;#34; , &amp;#34;helvetica neue&amp;#34; , &amp;#34;arial&amp;#34; , &amp;#34;pingfang sc&amp;#34; , &amp;#34;microsoft yahei&amp;#34; , &amp;#34;hiragino sans gb&amp;#34; , sans-serif&quot;&gt;&amp;nbsp;&lt;/span&gt;&lt;span style=&quot;font-family: &amp;#34;pt sans&amp;#34; , &amp;#34;helvetica neue&amp;#34; , &amp;#34;arial&amp;#34; , &amp;#34;pingfang sc&amp;#34; , &amp;#34;microsoft yahei&amp;#34; , &amp;#34;hiragino sans gb&amp;#34; , sans-serif ; letter-spacing: normal&quot;&gt;例如&lt;/span&gt;&lt;span class=&quot;chpule2&quot; style=&quot;box-sizing: inherit ; letter-spacing: -0.6em ; font-family: &amp;#34;pt sans&amp;#34; , &amp;#34;helvetica neue&amp;#34; , &amp;#34;arial&amp;#34; , &amp;#34;pingfang sc&amp;#34; , &amp;#34;microsoft yahei&amp;#34; , &amp;#34;hiragino sans gb&amp;#34; , sans-serif&quot;&gt;，&lt;/span&gt;&lt;span class=&quot;chpuri2&quot; style=&quot;box-sizing: inherit ; letter-spacing: 0.4rem ; font-family: &amp;#34;pt sans&amp;#34; , &amp;#34;helvetica neue&amp;#34; , &amp;#34;arial&amp;#34; , &amp;#34;pingfang sc&amp;#34; , &amp;#34;microsoft yahei&amp;#34; , &amp;#34;hiragino sans gb&amp;#34; , sans-serif&quot;&gt;&amp;nbsp;&lt;/span&gt;&lt;span style=&quot;font-family: &amp;#34;pt sans&amp;#34; , &amp;#34;helvetica neue&amp;#34; , &amp;#34;arial&amp;#34; , &amp;#34;pingfang sc&amp;#34; , &amp;#34;microsoft yahei&amp;#34; , &amp;#34;hiragino sans gb&amp;#34; , sans-serif ; letter-spacing: normal&quot;&gt;只有很少的房子有游泳池&lt;/span&gt;&lt;span class=&quot;chpule2&quot; style=&quot;box-sizing: inherit ; letter-spacing: -0.6em ; font-family: &amp;#34;pt sans&amp;#34; , &amp;#34;helvetica neue&amp;#34; , &amp;#34;arial&amp;#34; , &amp;#34;pingfang sc&amp;#34; , &amp;#34;microsoft yahei&amp;#34; , &amp;#34;hiragino sans gb&amp;#34; , sans-serif&quot;&gt;，&lt;/span&gt;&lt;span class=&quot;chpuri2&quot; style=&quot;box-sizing: inherit ; letter-spacing: 0.4rem ; font-family: &amp;#34;pt sans&amp;#34; , &amp;#34;helvetica neue&amp;#34; , &amp;#34;arial&amp;#34; , &amp;#34;pingfang sc&amp;#34; , &amp;#34;microsoft yahei&amp;#34; , &amp;#34;hiragino sans gb&amp;#34; , sans-serif&quot;&gt;&amp;nbsp;&lt;/span&gt;&lt;span style=&quot;font-family: &amp;#34;pt sans&amp;#34; , &amp;#34;helvetica neue&amp;#34; , &amp;#34;arial&amp;#34; , &amp;#34;pingfang sc&amp;#34; , &amp;#34;microsoft yahei&amp;#34; , &amp;#34;hiragino sans gb&amp;#34; , sans-serif ; letter-spacing: normal&quot;&gt;因此与游泳池相关的参数十之八九是毫无用处的&lt;/span&gt;&lt;span class=&quot;chpule2&quot; style=&quot;box-sizing: inherit ; letter-spacing: -0.6em ; font-family: &amp;#34;pt sans&amp;#34; , &amp;#34;helvetica neue&amp;#34; , &amp;#34;arial&amp;#34; , &amp;#34;pingfang sc&amp;#34; , &amp;#34;microsoft yahei&amp;#34; , &amp;#34;hiragino sans gb&amp;#34; , sans-serif&quot;&gt;。&lt;/span&gt;&lt;/font&gt;&lt;br&gt;&lt;/span&gt;&lt;/font&gt;&lt;/p&gt;" style="text;html=1;strokeColor=none;fillColor=none;spacing=5;spacingTop=-20;whiteSpace=wrap;overflow=hidden;rounded=0;" vertex="1" parent="1">
          <mxGeometry x="20" y="160" width="540" height="390" as="geometry" />
        </mxCell>
        <mxCell id="Ou7FNNjhHv-HC_c_U_H0-3" value="&lt;h1&gt;解决方案&lt;/h1&gt;&lt;p&gt;生成器模式建议将对象构造代码从产品类中抽取出来，并将其放在一个名为生成器的对立对象中。&lt;/p&gt;&lt;p style=&quot;box-sizing: inherit ; margin-top: 0px ; margin-bottom: 1.5rem ; color: rgb(68 , 68 , 68) ; font-family: &amp;#34;pt sans&amp;#34; , &amp;#34;helvetica neue&amp;#34; , &amp;#34;arial&amp;#34; , &amp;#34;pingfang sc&amp;#34; , &amp;#34;microsoft yahei&amp;#34; , &amp;#34;hiragino sans gb&amp;#34; , sans-serif ; background-color: rgb(255 , 255 , 255)&quot;&gt;&lt;font style=&quot;font-size: 12px&quot;&gt;该模式会将对象构造过程划分为一组步骤&lt;span class=&quot;chpule2&quot; style=&quot;box-sizing: inherit ; letter-spacing: -0.6em&quot;&gt;，&lt;/span&gt;&lt;span class=&quot;chpuri2&quot; style=&quot;box-sizing: inherit ; letter-spacing: 0.4rem&quot;&gt;&amp;nbsp;&lt;/span&gt;比如&lt;span class=&quot;chpule1&quot; style=&quot;box-sizing: inherit ; letter-spacing: 0.25rem&quot;&gt;&amp;nbsp;&lt;/span&gt;&lt;span class=&quot;code-pair ml&quot; style=&quot;box-sizing: inherit ; margin-left: -0.5em&quot;&gt;&lt;code class=&quot;with-parentheses&quot; style=&quot;box-sizing: inherit ; font-family: &amp;#34;menlo&amp;#34; , &amp;#34;fira code&amp;#34; , &amp;#34;monaco&amp;#34; , &amp;#34;consolas&amp;#34; , &amp;#34;courier new&amp;#34; , monospace ; line-height: 1.5 ; padding: 0px 1rem 0px 0.5rem ; border-radius: 50px 0px 0px 50px ; vertical-align: baseline ; background: rgb(238 , 238 , 238) ; word-break: keep-all ; overflow-wrap: normal ; display: inline-block ; margin-left: 0px&quot;&gt;build­Walls&lt;/code&gt;&lt;span class=&quot;code-parentheses&quot; style=&quot;box-sizing: inherit ; font-family: &amp;#34;menlo&amp;#34; , &amp;#34;fira code&amp;#34; , &amp;#34;monaco&amp;#34; , &amp;#34;consolas&amp;#34; , &amp;#34;courier new&amp;#34; , monospace ; display: inline-block ; line-height: 1.5 ; vertical-align: baseline ; padding: 0px 0.5rem ; background: rgb(221 , 221 , 221) ; border-radius: 50px ; margin-left: -0.5rem&quot;&gt;创建墙壁&lt;/span&gt;&lt;/span&gt;和&lt;span class=&quot;chpule1&quot; style=&quot;box-sizing: inherit ; letter-spacing: 0.25rem&quot;&gt;&amp;nbsp;&lt;/span&gt;&lt;span class=&quot;code-pair ml&quot; style=&quot;box-sizing: inherit ; margin-left: -0.5em&quot;&gt;&lt;code class=&quot;with-parentheses&quot; style=&quot;box-sizing: inherit ; font-family: &amp;#34;menlo&amp;#34; , &amp;#34;fira code&amp;#34; , &amp;#34;monaco&amp;#34; , &amp;#34;consolas&amp;#34; , &amp;#34;courier new&amp;#34; , monospace ; line-height: 1.5 ; padding: 0px 1rem 0px 0.5rem ; border-radius: 50px 0px 0px 50px ; vertical-align: baseline ; background: rgb(238 , 238 , 238) ; word-break: keep-all ; overflow-wrap: normal ; display: inline-block ; margin-left: 0px&quot;&gt;build­Door&lt;/code&gt;&lt;span class=&quot;code-parentheses&quot; style=&quot;box-sizing: inherit ; font-family: &amp;#34;menlo&amp;#34; , &amp;#34;fira code&amp;#34; , &amp;#34;monaco&amp;#34; , &amp;#34;consolas&amp;#34; , &amp;#34;courier new&amp;#34; , monospace ; display: inline-block ; line-height: 1.5 ; vertical-align: baseline ; padding: 0px 0.5rem ; background: rgb(221 , 221 , 221) ; border-radius: 50px ; margin-left: -0.5rem&quot;&gt;创建房门&lt;/span&gt;&lt;/span&gt;创建房门等&lt;span class=&quot;chpule2&quot; style=&quot;box-sizing: inherit ; letter-spacing: -0.6em&quot;&gt;。&lt;/span&gt;&lt;span class=&quot;chpuri2&quot; style=&quot;box-sizing: inherit ; letter-spacing: 0.4rem&quot;&gt;&amp;nbsp;&lt;/span&gt;每次创建对象时&lt;span class=&quot;chpule2&quot; style=&quot;box-sizing: inherit ; letter-spacing: -0.6em&quot;&gt;，&lt;/span&gt;&lt;span class=&quot;chpuri2&quot; style=&quot;box-sizing: inherit ; letter-spacing: 0.4rem&quot;&gt;&amp;nbsp;&lt;/span&gt;你都需要通过生成器对象执行一系列步骤&lt;span class=&quot;chpule2&quot; style=&quot;box-sizing: inherit ; letter-spacing: -0.6em&quot;&gt;。&lt;/span&gt;&lt;span class=&quot;chpuri2&quot; style=&quot;box-sizing: inherit ; letter-spacing: 0.4rem&quot;&gt;&amp;nbsp;&lt;/span&gt;重点在于你无需调用所有步骤&lt;span class=&quot;chpule2&quot; style=&quot;box-sizing: inherit ; letter-spacing: -0.6em&quot;&gt;，&lt;/span&gt;&lt;span class=&quot;chpuri2&quot; style=&quot;box-sizing: inherit ; letter-spacing: 0.4rem&quot;&gt;&amp;nbsp;&lt;/span&gt;而只需调用创建特定对象配置所需的那些步骤即可&lt;span class=&quot;chpule2&quot; style=&quot;box-sizing: inherit ; letter-spacing: -0.6em&quot;&gt;。&lt;/span&gt;&lt;span class=&quot;chpuri2&quot; style=&quot;box-sizing: inherit ; letter-spacing: 0.4rem&quot;&gt;&lt;/span&gt;&lt;/font&gt;&lt;/p&gt;&lt;p style=&quot;box-sizing: inherit ; margin-top: 0px ; margin-bottom: 1.5rem ; color: rgb(68 , 68 , 68) ; font-family: &amp;#34;pt sans&amp;#34; , &amp;#34;helvetica neue&amp;#34; , &amp;#34;arial&amp;#34; , &amp;#34;pingfang sc&amp;#34; , &amp;#34;microsoft yahei&amp;#34; , &amp;#34;hiragino sans gb&amp;#34; , sans-serif ; background-color: rgb(255 , 255 , 255)&quot;&gt;&lt;font style=&quot;font-size: 12px&quot;&gt;当你需要创建不同形式的产品时&lt;span class=&quot;chpule2&quot; style=&quot;box-sizing: inherit ; letter-spacing: -0.6em&quot;&gt;，&lt;/span&gt;&lt;span class=&quot;chpuri2&quot; style=&quot;box-sizing: inherit ; letter-spacing: 0.4rem&quot;&gt;&amp;nbsp;&lt;/span&gt;其中的一些构造步骤可能需要不同的实现&lt;span class=&quot;chpule2&quot; style=&quot;box-sizing: inherit ; letter-spacing: -0.6em&quot;&gt;。&lt;/span&gt;&lt;span class=&quot;chpuri2&quot; style=&quot;box-sizing: inherit ; letter-spacing: 0.4rem&quot;&gt;&amp;nbsp;&lt;/span&gt;例如&lt;span class=&quot;chpule2&quot; style=&quot;box-sizing: inherit ; letter-spacing: -0.6em&quot;&gt;，&lt;/span&gt;&lt;span class=&quot;chpuri2&quot; style=&quot;box-sizing: inherit ; letter-spacing: 0.4rem&quot;&gt;&amp;nbsp;&lt;/span&gt;木屋的房门可能需要使用木头制造&lt;span class=&quot;chpule2&quot; style=&quot;box-sizing: inherit ; letter-spacing: -0.6em&quot;&gt;，&lt;/span&gt;&lt;span class=&quot;chpuri2&quot; style=&quot;box-sizing: inherit ; letter-spacing: 0.4rem&quot;&gt;&amp;nbsp;&lt;/span&gt;而城堡的房门则必须使用石头制造&lt;span class=&quot;chpule2&quot; style=&quot;box-sizing: inherit ; letter-spacing: -0.6em&quot;&gt;。&lt;/span&gt;&lt;span class=&quot;chpuri2&quot; style=&quot;box-sizing: inherit ; letter-spacing: 0.4rem ; box-sizing: inherit ; letter-spacing: 0.4rem&quot;&gt;&lt;/span&gt;&lt;/font&gt;&lt;/p&gt;&lt;p style=&quot;box-sizing: inherit ; margin-top: 0px ; margin-bottom: 1.5rem ; color: rgb(68 , 68 , 68) ; font-family: &amp;#34;pt sans&amp;#34; , &amp;#34;helvetica neue&amp;#34; , &amp;#34;arial&amp;#34; , &amp;#34;pingfang sc&amp;#34; , &amp;#34;microsoft yahei&amp;#34; , &amp;#34;hiragino sans gb&amp;#34; , sans-serif ; background-color: rgb(255 , 255 , 255)&quot;&gt;&lt;font style=&quot;font-size: 12px&quot;&gt;在这种情况下&lt;span class=&quot;chpule2&quot; style=&quot;box-sizing: inherit ; letter-spacing: -0.6em&quot;&gt;，&lt;/span&gt;&lt;span class=&quot;chpuri2&quot; style=&quot;box-sizing: inherit ; letter-spacing: 0.4rem&quot;&gt;&amp;nbsp;&lt;/span&gt;你可以创建多个不同的生成器&lt;span class=&quot;chpule2&quot; style=&quot;box-sizing: inherit ; letter-spacing: -0.6em&quot;&gt;，&lt;/span&gt;&lt;span class=&quot;chpuri2&quot; style=&quot;box-sizing: inherit ; letter-spacing: 0.4rem&quot;&gt;&amp;nbsp;&lt;/span&gt;用不同方式实现一组相同的创建步骤&lt;span class=&quot;chpule2&quot; style=&quot;box-sizing: inherit ; letter-spacing: -0.6em&quot;&gt;。&lt;/span&gt;&lt;span class=&quot;chpuri2&quot; style=&quot;box-sizing: inherit ; letter-spacing: 0.4rem&quot;&gt;&amp;nbsp;&lt;/span&gt;然后你就可以在创建过程中使用这些生成器&lt;span class=&quot;chpule1&quot; style=&quot;box-sizing: inherit ; letter-spacing: 0.25rem&quot;&gt;&amp;nbsp;&lt;/span&gt;&lt;span class=&quot;chpuri1&quot; style=&quot;box-sizing: inherit ; margin-left: -0.5em&quot;&gt;（&lt;/span&gt;例如按顺序调用多个构造步骤&lt;span class=&quot;chpule2&quot; style=&quot;box-sizing: inherit ; letter-spacing: -0.6em&quot;&gt;）&lt;/span&gt;&lt;span class=&quot;chpuri2&quot; style=&quot;box-sizing: inherit ; letter-spacing: 0.4rem&quot;&gt;&amp;nbsp;&lt;/span&gt;来生成不同类型的对象&lt;span class=&quot;chpule2&quot; style=&quot;box-sizing: inherit ; letter-spacing: -0.6em&quot;&gt;。&lt;/span&gt;&lt;/font&gt;&lt;/p&gt;" style="text;html=1;strokeColor=none;fillColor=none;spacing=5;spacingTop=-20;whiteSpace=wrap;overflow=hidden;rounded=0;" vertex="1" parent="1">
          <mxGeometry x="30" y="550" width="560" height="250" as="geometry" />
        </mxCell>
        <mxCell id="Ou7FNNjhHv-HC_c_U_H0-5" value="&lt;h1&gt;主管&lt;/h1&gt;&lt;p&gt;&lt;font style=&quot;font-size: 12px&quot;&gt;&lt;span style=&quot;color: rgb(68 , 68 , 68) ; font-family: &amp;#34;pt sans&amp;#34; , &amp;#34;helvetica neue&amp;#34; , &amp;#34;arial&amp;#34; , &amp;#34;pingfang sc&amp;#34; , &amp;#34;microsoft yahei&amp;#34; , &amp;#34;hiragino sans gb&amp;#34; , sans-serif ; background-color: rgb(255 , 255 , 255)&quot;&gt;你可以进一步将用于创建产品的一系列生成器步骤调用抽取成为单独的&lt;/span&gt;&lt;span style=&quot;box-sizing: inherit ; font-family: &amp;#34;pt sans&amp;#34; , &amp;#34;helvetica neue&amp;#34; , &amp;#34;arial&amp;#34; , &amp;#34;pingfang sc&amp;#34; , &amp;#34;microsoft yahei&amp;#34; , &amp;#34;hiragino sans gb&amp;#34; , sans-serif ; background-color: rgb(255 , 255 , 255)&quot;&gt;主管&lt;/span&gt;&lt;span style=&quot;color: rgb(68 , 68 , 68) ; font-family: &amp;#34;pt sans&amp;#34; , &amp;#34;helvetica neue&amp;#34; , &amp;#34;arial&amp;#34; , &amp;#34;pingfang sc&amp;#34; , &amp;#34;microsoft yahei&amp;#34; , &amp;#34;hiragino sans gb&amp;#34; , sans-serif ; background-color: rgb(255 , 255 , 255)&quot;&gt;类&lt;/span&gt;&lt;span class=&quot;chpule2&quot; style=&quot;box-sizing: inherit ; letter-spacing: -0.6em ; color: rgb(68 , 68 , 68) ; font-family: &amp;#34;pt sans&amp;#34; , &amp;#34;helvetica neue&amp;#34; , &amp;#34;arial&amp;#34; , &amp;#34;pingfang sc&amp;#34; , &amp;#34;microsoft yahei&amp;#34; , &amp;#34;hiragino sans gb&amp;#34; , sans-serif ; background-color: rgb(255 , 255 , 255)&quot;&gt;。&lt;/span&gt;&lt;span class=&quot;chpuri2&quot; style=&quot;box-sizing: inherit ; letter-spacing: 0.4rem ; color: rgb(68 , 68 , 68) ; font-family: &amp;#34;pt sans&amp;#34; , &amp;#34;helvetica neue&amp;#34; , &amp;#34;arial&amp;#34; , &amp;#34;pingfang sc&amp;#34; , &amp;#34;microsoft yahei&amp;#34; , &amp;#34;hiragino sans gb&amp;#34; , sans-serif ; background-color: rgb(255 , 255 , 255)&quot;&gt;&amp;nbsp;&lt;/span&gt;&lt;span style=&quot;color: rgb(68 , 68 , 68) ; font-family: &amp;#34;pt sans&amp;#34; , &amp;#34;helvetica neue&amp;#34; , &amp;#34;arial&amp;#34; , &amp;#34;pingfang sc&amp;#34; , &amp;#34;microsoft yahei&amp;#34; , &amp;#34;hiragino sans gb&amp;#34; , sans-serif ; background-color: rgb(255 , 255 , 255)&quot;&gt;主管类可定义创建步骤的执行顺序&lt;/span&gt;&lt;span class=&quot;chpule2&quot; style=&quot;box-sizing: inherit ; letter-spacing: -0.6em ; color: rgb(68 , 68 , 68) ; font-family: &amp;#34;pt sans&amp;#34; , &amp;#34;helvetica neue&amp;#34; , &amp;#34;arial&amp;#34; , &amp;#34;pingfang sc&amp;#34; , &amp;#34;microsoft yahei&amp;#34; , &amp;#34;hiragino sans gb&amp;#34; , sans-serif ; background-color: rgb(255 , 255 , 255)&quot;&gt;，&lt;/span&gt;&lt;span class=&quot;chpuri2&quot; style=&quot;box-sizing: inherit ; letter-spacing: 0.4rem ; color: rgb(68 , 68 , 68) ; font-family: &amp;#34;pt sans&amp;#34; , &amp;#34;helvetica neue&amp;#34; , &amp;#34;arial&amp;#34; , &amp;#34;pingfang sc&amp;#34; , &amp;#34;microsoft yahei&amp;#34; , &amp;#34;hiragino sans gb&amp;#34; , sans-serif ; background-color: rgb(255 , 255 , 255)&quot;&gt;&amp;nbsp;&lt;/span&gt;&lt;span style=&quot;color: rgb(68 , 68 , 68) ; font-family: &amp;#34;pt sans&amp;#34; , &amp;#34;helvetica neue&amp;#34; , &amp;#34;arial&amp;#34; , &amp;#34;pingfang sc&amp;#34; , &amp;#34;microsoft yahei&amp;#34; , &amp;#34;hiragino sans gb&amp;#34; , sans-serif ; background-color: rgb(255 , 255 , 255)&quot;&gt;而生成器则提供这些步骤的实现&lt;/span&gt;&lt;span class=&quot;chpule2&quot; style=&quot;box-sizing: inherit ; letter-spacing: -0.6em ; color: rgb(68 , 68 , 68) ; font-family: &amp;#34;pt sans&amp;#34; , &amp;#34;helvetica neue&amp;#34; , &amp;#34;arial&amp;#34; , &amp;#34;pingfang sc&amp;#34; , &amp;#34;microsoft yahei&amp;#34; , &amp;#34;hiragino sans gb&amp;#34; , sans-serif ; background-color: rgb(255 , 255 , 255)&quot;&gt;。&lt;/span&gt;&lt;/font&gt;&lt;br&gt;&lt;/p&gt;&lt;p&gt;&lt;font&gt;&lt;span class=&quot;chpule2&quot; style=&quot;box-sizing: inherit ; letter-spacing: -0.6em ; color: rgb(68 , 68 , 68) ; font-family: &amp;#34;pt sans&amp;#34; , &amp;#34;helvetica neue&amp;#34; , &amp;#34;arial&amp;#34; , &amp;#34;pingfang sc&amp;#34; , &amp;#34;microsoft yahei&amp;#34; , &amp;#34;hiragino sans gb&amp;#34; , sans-serif ; background-color: rgb(255 , 255 , 255)&quot;&gt;&lt;font style=&quot;font-size: 12px&quot;&gt;&lt;span style=&quot;font-family: &amp;#34;pt sans&amp;#34; , &amp;#34;helvetica neue&amp;#34; , &amp;#34;arial&amp;#34; , &amp;#34;pingfang sc&amp;#34; , &amp;#34;microsoft yahei&amp;#34; , &amp;#34;hiragino sans gb&amp;#34; , sans-serif ; letter-spacing: normal&quot;&gt;严格来说&lt;/span&gt;&lt;span class=&quot;chpule2&quot; style=&quot;box-sizing: inherit ; letter-spacing: -0.6em ; font-family: &amp;#34;pt sans&amp;#34; , &amp;#34;helvetica neue&amp;#34; , &amp;#34;arial&amp;#34; , &amp;#34;pingfang sc&amp;#34; , &amp;#34;microsoft yahei&amp;#34; , &amp;#34;hiragino sans gb&amp;#34; , sans-serif&quot;&gt;，&lt;/span&gt;&lt;span class=&quot;chpuri2&quot; style=&quot;box-sizing: inherit ; letter-spacing: 0.4rem ; font-family: &amp;#34;pt sans&amp;#34; , &amp;#34;helvetica neue&amp;#34; , &amp;#34;arial&amp;#34; , &amp;#34;pingfang sc&amp;#34; , &amp;#34;microsoft yahei&amp;#34; , &amp;#34;hiragino sans gb&amp;#34; , sans-serif&quot;&gt;&amp;nbsp;&lt;/span&gt;&lt;span style=&quot;font-family: &amp;#34;pt sans&amp;#34; , &amp;#34;helvetica neue&amp;#34; , &amp;#34;arial&amp;#34; , &amp;#34;pingfang sc&amp;#34; , &amp;#34;microsoft yahei&amp;#34; , &amp;#34;hiragino sans gb&amp;#34; , sans-serif ; letter-spacing: normal&quot;&gt;你的程序中并不一定需要主管类&lt;/span&gt;&lt;span class=&quot;chpule2&quot; style=&quot;box-sizing: inherit ; letter-spacing: -0.6em ; font-family: &amp;#34;pt sans&amp;#34; , &amp;#34;helvetica neue&amp;#34; , &amp;#34;arial&amp;#34; , &amp;#34;pingfang sc&amp;#34; , &amp;#34;microsoft yahei&amp;#34; , &amp;#34;hiragino sans gb&amp;#34; , sans-serif&quot;&gt;。&lt;/span&gt;&lt;span class=&quot;chpuri2&quot; style=&quot;box-sizing: inherit ; letter-spacing: 0.4rem ; font-family: &amp;#34;pt sans&amp;#34; , &amp;#34;helvetica neue&amp;#34; , &amp;#34;arial&amp;#34; , &amp;#34;pingfang sc&amp;#34; , &amp;#34;microsoft yahei&amp;#34; , &amp;#34;hiragino sans gb&amp;#34; , sans-serif&quot;&gt;&amp;nbsp;&lt;/span&gt;&lt;span style=&quot;font-family: &amp;#34;pt sans&amp;#34; , &amp;#34;helvetica neue&amp;#34; , &amp;#34;arial&amp;#34; , &amp;#34;pingfang sc&amp;#34; , &amp;#34;microsoft yahei&amp;#34; , &amp;#34;hiragino sans gb&amp;#34; , sans-serif ; letter-spacing: normal&quot;&gt;客户端代码可直接以特定顺序调用创建步骤&lt;/span&gt;&lt;span class=&quot;chpule2&quot; style=&quot;box-sizing: inherit ; letter-spacing: -0.6em ; font-family: &amp;#34;pt sans&amp;#34; , &amp;#34;helvetica neue&amp;#34; , &amp;#34;arial&amp;#34; , &amp;#34;pingfang sc&amp;#34; , &amp;#34;microsoft yahei&amp;#34; , &amp;#34;hiragino sans gb&amp;#34; , sans-serif&quot;&gt;。&lt;/span&gt;&lt;span class=&quot;chpuri2&quot; style=&quot;box-sizing: inherit ; letter-spacing: 0.4rem ; font-family: &amp;#34;pt sans&amp;#34; , &amp;#34;helvetica neue&amp;#34; , &amp;#34;arial&amp;#34; , &amp;#34;pingfang sc&amp;#34; , &amp;#34;microsoft yahei&amp;#34; , &amp;#34;hiragino sans gb&amp;#34; , sans-serif&quot;&gt;&amp;nbsp;&lt;/span&gt;&lt;span style=&quot;font-family: &amp;#34;pt sans&amp;#34; , &amp;#34;helvetica neue&amp;#34; , &amp;#34;arial&amp;#34; , &amp;#34;pingfang sc&amp;#34; , &amp;#34;microsoft yahei&amp;#34; , &amp;#34;hiragino sans gb&amp;#34; , sans-serif ; letter-spacing: normal&quot;&gt;不过&lt;/span&gt;&lt;span class=&quot;chpule2&quot; style=&quot;box-sizing: inherit ; letter-spacing: -0.6em ; font-family: &amp;#34;pt sans&amp;#34; , &amp;#34;helvetica neue&amp;#34; , &amp;#34;arial&amp;#34; , &amp;#34;pingfang sc&amp;#34; , &amp;#34;microsoft yahei&amp;#34; , &amp;#34;hiragino sans gb&amp;#34; , sans-serif&quot;&gt;，&lt;/span&gt;&lt;span class=&quot;chpuri2&quot; style=&quot;box-sizing: inherit ; letter-spacing: 0.4rem ; font-family: &amp;#34;pt sans&amp;#34; , &amp;#34;helvetica neue&amp;#34; , &amp;#34;arial&amp;#34; , &amp;#34;pingfang sc&amp;#34; , &amp;#34;microsoft yahei&amp;#34; , &amp;#34;hiragino sans gb&amp;#34; , sans-serif&quot;&gt;&amp;nbsp;&lt;/span&gt;&lt;span style=&quot;font-family: &amp;#34;pt sans&amp;#34; , &amp;#34;helvetica neue&amp;#34; , &amp;#34;arial&amp;#34; , &amp;#34;pingfang sc&amp;#34; , &amp;#34;microsoft yahei&amp;#34; , &amp;#34;hiragino sans gb&amp;#34; , sans-serif ; letter-spacing: normal&quot;&gt;主管类中非常适合放入各种例行构造流程&lt;/span&gt;&lt;span class=&quot;chpule2&quot; style=&quot;box-sizing: inherit ; letter-spacing: -0.6em ; font-family: &amp;#34;pt sans&amp;#34; , &amp;#34;helvetica neue&amp;#34; , &amp;#34;arial&amp;#34; , &amp;#34;pingfang sc&amp;#34; , &amp;#34;microsoft yahei&amp;#34; , &amp;#34;hiragino sans gb&amp;#34; , sans-serif&quot;&gt;，&lt;/span&gt;&lt;span class=&quot;chpuri2&quot; style=&quot;box-sizing: inherit ; letter-spacing: 0.4rem ; font-family: &amp;#34;pt sans&amp;#34; , &amp;#34;helvetica neue&amp;#34; , &amp;#34;arial&amp;#34; , &amp;#34;pingfang sc&amp;#34; , &amp;#34;microsoft yahei&amp;#34; , &amp;#34;hiragino sans gb&amp;#34; , sans-serif&quot;&gt;&amp;nbsp;&lt;/span&gt;&lt;span style=&quot;font-family: &amp;#34;pt sans&amp;#34; , &amp;#34;helvetica neue&amp;#34; , &amp;#34;arial&amp;#34; , &amp;#34;pingfang sc&amp;#34; , &amp;#34;microsoft yahei&amp;#34; , &amp;#34;hiragino sans gb&amp;#34; , sans-serif ; letter-spacing: normal&quot;&gt;以便在程序中反复使用&lt;/span&gt;&lt;span class=&quot;chpule2&quot; style=&quot;box-sizing: inherit ; letter-spacing: -0.6em ; font-family: &amp;#34;pt sans&amp;#34; , &amp;#34;helvetica neue&amp;#34; , &amp;#34;arial&amp;#34; , &amp;#34;pingfang sc&amp;#34; , &amp;#34;microsoft yahei&amp;#34; , &amp;#34;hiragino sans gb&amp;#34; , sans-serif&quot;&gt;。&lt;/span&gt;&lt;/font&gt;&lt;br&gt;&lt;/span&gt;&lt;/font&gt;&lt;/p&gt;&lt;p&gt;&lt;font&gt;&lt;span class=&quot;chpule2&quot; style=&quot;box-sizing: inherit ; letter-spacing: -0.6em ; color: rgb(68 , 68 , 68) ; font-family: &amp;#34;pt sans&amp;#34; , &amp;#34;helvetica neue&amp;#34; , &amp;#34;arial&amp;#34; , &amp;#34;pingfang sc&amp;#34; , &amp;#34;microsoft yahei&amp;#34; , &amp;#34;hiragino sans gb&amp;#34; , sans-serif ; background-color: rgb(255 , 255 , 255)&quot;&gt;&lt;font&gt;&lt;span class=&quot;chpule2&quot; style=&quot;box-sizing: inherit ; letter-spacing: -0.6em ; font-family: &amp;#34;pt sans&amp;#34; , &amp;#34;helvetica neue&amp;#34; , &amp;#34;arial&amp;#34; , &amp;#34;pingfang sc&amp;#34; , &amp;#34;microsoft yahei&amp;#34; , &amp;#34;hiragino sans gb&amp;#34; , sans-serif&quot;&gt;&lt;font style=&quot;font-size: 12px&quot;&gt;&lt;span style=&quot;letter-spacing: normal&quot;&gt;此外&lt;/span&gt;&lt;span class=&quot;chpule2&quot; style=&quot;box-sizing: inherit ; letter-spacing: -0.6em&quot;&gt;，&lt;/span&gt;&lt;span class=&quot;chpuri2&quot; style=&quot;box-sizing: inherit ; letter-spacing: 0.4rem&quot;&gt;&amp;nbsp;&lt;/span&gt;&lt;span style=&quot;letter-spacing: normal&quot;&gt;对于客户端代码来说&lt;/span&gt;&lt;span class=&quot;chpule2&quot; style=&quot;box-sizing: inherit ; letter-spacing: -0.6em&quot;&gt;，&lt;/span&gt;&lt;span class=&quot;chpuri2&quot; style=&quot;box-sizing: inherit ; letter-spacing: 0.4rem&quot;&gt;&amp;nbsp;&lt;/span&gt;&lt;span style=&quot;letter-spacing: normal&quot;&gt;主管类完全隐藏了产品构造细节&lt;/span&gt;&lt;span class=&quot;chpule2&quot; style=&quot;box-sizing: inherit ; letter-spacing: -0.6em&quot;&gt;。&lt;/span&gt;&lt;span class=&quot;chpuri2&quot; style=&quot;box-sizing: inherit ; letter-spacing: 0.4rem&quot;&gt;&amp;nbsp;&lt;/span&gt;&lt;span style=&quot;letter-spacing: normal&quot;&gt;客户端只需要将一个生成器与主管类关联&lt;/span&gt;&lt;span class=&quot;chpule2&quot; style=&quot;box-sizing: inherit ; letter-spacing: -0.6em&quot;&gt;，&lt;/span&gt;&lt;span class=&quot;chpuri2&quot; style=&quot;box-sizing: inherit ; letter-spacing: 0.4rem&quot;&gt;&amp;nbsp;&lt;/span&gt;&lt;span style=&quot;letter-spacing: normal&quot;&gt;然后使用主管类来构造产品&lt;/span&gt;&lt;span class=&quot;chpule2&quot; style=&quot;box-sizing: inherit ; letter-spacing: -0.6em&quot;&gt;，&lt;/span&gt;&lt;span class=&quot;chpuri2&quot; style=&quot;box-sizing: inherit ; letter-spacing: 0.4rem&quot;&gt;&amp;nbsp;&lt;/span&gt;&lt;span style=&quot;letter-spacing: normal&quot;&gt;就能从生成器处获得构造结果了&lt;/span&gt;&lt;span class=&quot;chpule2&quot; style=&quot;box-sizing: inherit ; letter-spacing: -0.6em&quot;&gt;。&lt;/span&gt;&lt;/font&gt;&lt;br&gt;&lt;/span&gt;&lt;/font&gt;&lt;/span&gt;&lt;/font&gt;&lt;/p&gt;&lt;p&gt;&lt;font&gt;&lt;span class=&quot;chpule2&quot; style=&quot;box-sizing: inherit ; letter-spacing: -0.6em ; color: rgb(68 , 68 , 68) ; font-family: &amp;#34;pt sans&amp;#34; , &amp;#34;helvetica neue&amp;#34; , &amp;#34;arial&amp;#34; , &amp;#34;pingfang sc&amp;#34; , &amp;#34;microsoft yahei&amp;#34; , &amp;#34;hiragino sans gb&amp;#34; , sans-serif ; background-color: rgb(255 , 255 , 255)&quot;&gt;&lt;font style=&quot;font-size: 12px&quot;&gt;&lt;span class=&quot;chpule2&quot; style=&quot;box-sizing: inherit ; letter-spacing: -0.6em ; font-family: &amp;#34;pt sans&amp;#34; , &amp;#34;helvetica neue&amp;#34; , &amp;#34;arial&amp;#34; , &amp;#34;pingfang sc&amp;#34; , &amp;#34;microsoft yahei&amp;#34; , &amp;#34;hiragino sans gb&amp;#34; , sans-serif&quot;&gt;&lt;br&gt;&lt;/span&gt;&lt;/font&gt;&lt;/span&gt;&lt;/font&gt;&lt;/p&gt;" style="text;html=1;strokeColor=none;fillColor=none;spacing=5;spacingTop=-20;whiteSpace=wrap;overflow=hidden;rounded=0;" vertex="1" parent="1">
          <mxGeometry x="40" y="800" width="560" height="170" as="geometry" />
        </mxCell>
        <mxCell id="Ou7FNNjhHv-HC_c_U_H0-8" value="" style="shape=image;verticalLabelPosition=bottom;verticalAlign=top;imageAspect=0;image=https://refactoringguru.cn/images/patterns/diagrams/builder/structure-indexed-2x.png" vertex="1" parent="1">
          <mxGeometry x="40" y="1000" width="530" height="590" as="geometry" />
        </mxCell>
        <mxCell id="Ou7FNNjhHv-HC_c_U_H0-9" value="&lt;div style=&quot;color: rgb(212, 212, 212); background-color: rgb(30, 30, 30); font-family: consolas, &amp;quot;courier new&amp;quot;, monospace; font-weight: normal; font-size: 14px; line-height: 19px;&quot;&gt;&lt;div&gt;&lt;span style=&quot;color: #6a9955&quot;&gt;/**&lt;/span&gt;&lt;/div&gt;&lt;div&gt;&lt;span style=&quot;color: #6a9955&quot;&gt;&amp;nbsp;*&amp;nbsp;The&amp;nbsp;Builder&amp;nbsp;interface&amp;nbsp;specifies&amp;nbsp;methods&amp;nbsp;for&amp;nbsp;creating&amp;nbsp;the&amp;nbsp;different&amp;nbsp;parts&amp;nbsp;of&lt;/span&gt;&lt;/div&gt;&lt;div&gt;&lt;span style=&quot;color: #6a9955&quot;&gt;&amp;nbsp;*&amp;nbsp;the&amp;nbsp;Product&amp;nbsp;objects.&lt;/span&gt;&lt;/div&gt;&lt;div&gt;&lt;span style=&quot;color: #6a9955&quot;&gt;&amp;nbsp;*/&lt;/span&gt;&lt;/div&gt;&lt;div&gt;&lt;span style=&quot;color: #569cd6&quot;&gt;interface&lt;/span&gt;&lt;span style=&quot;color: #d4d4d4&quot;&gt;&amp;nbsp;&lt;/span&gt;&lt;span style=&quot;color: #4ec9b0&quot;&gt;Builder&lt;/span&gt;&lt;span style=&quot;color: #d4d4d4&quot;&gt;&amp;nbsp;{&lt;/span&gt;&lt;/div&gt;&lt;div&gt;&lt;span style=&quot;color: #d4d4d4&quot;&gt;&amp;nbsp;&amp;nbsp;&amp;nbsp;&amp;nbsp;&lt;/span&gt;&lt;span style=&quot;color: #dcdcaa&quot;&gt;producePartA&lt;/span&gt;&lt;span style=&quot;color: #d4d4d4&quot;&gt;()&lt;/span&gt;&lt;span style=&quot;color: #d4d4d4&quot;&gt;:&lt;/span&gt;&lt;span style=&quot;color: #d4d4d4&quot;&gt;&amp;nbsp;&lt;/span&gt;&lt;span style=&quot;color: #4ec9b0&quot;&gt;void&lt;/span&gt;&lt;span style=&quot;color: #d4d4d4&quot;&gt;;&lt;/span&gt;&lt;/div&gt;&lt;div&gt;&lt;span style=&quot;color: #d4d4d4&quot;&gt;&amp;nbsp;&amp;nbsp;&amp;nbsp;&amp;nbsp;&lt;/span&gt;&lt;span style=&quot;color: #dcdcaa&quot;&gt;producePartB&lt;/span&gt;&lt;span style=&quot;color: #d4d4d4&quot;&gt;()&lt;/span&gt;&lt;span style=&quot;color: #d4d4d4&quot;&gt;:&lt;/span&gt;&lt;span style=&quot;color: #d4d4d4&quot;&gt;&amp;nbsp;&lt;/span&gt;&lt;span style=&quot;color: #4ec9b0&quot;&gt;void&lt;/span&gt;&lt;span style=&quot;color: #d4d4d4&quot;&gt;;&lt;/span&gt;&lt;/div&gt;&lt;div&gt;&lt;span style=&quot;color: #d4d4d4&quot;&gt;&amp;nbsp;&amp;nbsp;&amp;nbsp;&amp;nbsp;&lt;/span&gt;&lt;span style=&quot;color: #dcdcaa&quot;&gt;producePartC&lt;/span&gt;&lt;span style=&quot;color: #d4d4d4&quot;&gt;()&lt;/span&gt;&lt;span style=&quot;color: #d4d4d4&quot;&gt;:&lt;/span&gt;&lt;span style=&quot;color: #d4d4d4&quot;&gt;&amp;nbsp;&lt;/span&gt;&lt;span style=&quot;color: #4ec9b0&quot;&gt;void&lt;/span&gt;&lt;span style=&quot;color: #d4d4d4&quot;&gt;;&lt;/span&gt;&lt;/div&gt;&lt;div&gt;&lt;span style=&quot;color: #d4d4d4&quot;&gt;}&lt;/span&gt;&lt;/div&gt;&lt;br&gt;&lt;div&gt;&lt;span style=&quot;color: #6a9955&quot;&gt;/**&lt;/span&gt;&lt;/div&gt;&lt;div&gt;&lt;span style=&quot;color: #6a9955&quot;&gt;&amp;nbsp;*&amp;nbsp;The&amp;nbsp;Concrete&amp;nbsp;Builder&amp;nbsp;classes&amp;nbsp;follow&amp;nbsp;the&amp;nbsp;Builder&amp;nbsp;interface&amp;nbsp;and&amp;nbsp;provide&lt;/span&gt;&lt;/div&gt;&lt;div&gt;&lt;span style=&quot;color: #6a9955&quot;&gt;&amp;nbsp;*&amp;nbsp;specific&amp;nbsp;implementations&amp;nbsp;of&amp;nbsp;the&amp;nbsp;building&amp;nbsp;steps.&amp;nbsp;Your&amp;nbsp;program&amp;nbsp;may&amp;nbsp;have&amp;nbsp;several&lt;/span&gt;&lt;/div&gt;&lt;div&gt;&lt;span style=&quot;color: #6a9955&quot;&gt;&amp;nbsp;*&amp;nbsp;variations&amp;nbsp;of&amp;nbsp;Builders,&amp;nbsp;implemented&amp;nbsp;differently.&lt;/span&gt;&lt;/div&gt;&lt;div&gt;&lt;span style=&quot;color: #6a9955&quot;&gt;&amp;nbsp;*/&lt;/span&gt;&lt;/div&gt;&lt;div&gt;&lt;span style=&quot;color: #569cd6&quot;&gt;class&lt;/span&gt;&lt;span style=&quot;color: #d4d4d4&quot;&gt;&amp;nbsp;&lt;/span&gt;&lt;span style=&quot;color: #4ec9b0&quot;&gt;ConcreteBuilder1&lt;/span&gt;&lt;span style=&quot;color: #d4d4d4&quot;&gt;&amp;nbsp;&lt;/span&gt;&lt;span style=&quot;color: #569cd6&quot;&gt;implements&lt;/span&gt;&lt;span style=&quot;color: #d4d4d4&quot;&gt;&amp;nbsp;&lt;/span&gt;&lt;span style=&quot;color: #4ec9b0&quot;&gt;Builder&lt;/span&gt;&lt;span style=&quot;color: #d4d4d4&quot;&gt;&amp;nbsp;{&lt;/span&gt;&lt;/div&gt;&lt;div&gt;&lt;span style=&quot;color: #d4d4d4&quot;&gt;&amp;nbsp;&amp;nbsp;&amp;nbsp;&amp;nbsp;&lt;/span&gt;&lt;span style=&quot;color: #569cd6&quot;&gt;private&lt;/span&gt;&lt;span style=&quot;color: #d4d4d4&quot;&gt;&amp;nbsp;&lt;/span&gt;&lt;span style=&quot;color: #9cdcfe&quot;&gt;product&lt;/span&gt;&lt;span style=&quot;color: #d4d4d4&quot;&gt;:&lt;/span&gt;&lt;span style=&quot;color: #d4d4d4&quot;&gt;&amp;nbsp;&lt;/span&gt;&lt;span style=&quot;color: #4ec9b0&quot;&gt;Product1&lt;/span&gt;&lt;span style=&quot;color: #d4d4d4&quot;&gt;;&lt;/span&gt;&lt;/div&gt;&lt;br&gt;&lt;div&gt;&lt;span style=&quot;color: #d4d4d4&quot;&gt;&amp;nbsp;&amp;nbsp;&amp;nbsp;&amp;nbsp;&lt;/span&gt;&lt;span style=&quot;color: #6a9955&quot;&gt;/**&lt;/span&gt;&lt;/div&gt;&lt;div&gt;&lt;span style=&quot;color: #6a9955&quot;&gt;&amp;nbsp;&amp;nbsp;&amp;nbsp;&amp;nbsp;&amp;nbsp;*&amp;nbsp;A&amp;nbsp;fresh&amp;nbsp;builder&amp;nbsp;instance&amp;nbsp;should&amp;nbsp;contain&amp;nbsp;a&amp;nbsp;blank&amp;nbsp;product&amp;nbsp;object,&amp;nbsp;which&amp;nbsp;is&lt;/span&gt;&lt;/div&gt;&lt;div&gt;&lt;span style=&quot;color: #6a9955&quot;&gt;&amp;nbsp;&amp;nbsp;&amp;nbsp;&amp;nbsp;&amp;nbsp;*&amp;nbsp;used&amp;nbsp;in&amp;nbsp;further&amp;nbsp;assembly.&lt;/span&gt;&lt;/div&gt;&lt;div&gt;&lt;span style=&quot;color: #6a9955&quot;&gt;&amp;nbsp;&amp;nbsp;&amp;nbsp;&amp;nbsp;&amp;nbsp;*/&lt;/span&gt;&lt;/div&gt;&lt;div&gt;&lt;span style=&quot;color: #d4d4d4&quot;&gt;&amp;nbsp;&amp;nbsp;&amp;nbsp;&amp;nbsp;&lt;/span&gt;&lt;span style=&quot;color: #569cd6&quot;&gt;constructor&lt;/span&gt;&lt;span style=&quot;color: #d4d4d4&quot;&gt;()&amp;nbsp;{&lt;/span&gt;&lt;/div&gt;&lt;div&gt;&lt;span style=&quot;color: #d4d4d4&quot;&gt;&amp;nbsp;&amp;nbsp;&amp;nbsp;&amp;nbsp;&amp;nbsp;&amp;nbsp;&amp;nbsp;&amp;nbsp;&lt;/span&gt;&lt;span style=&quot;color: #569cd6&quot;&gt;this&lt;/span&gt;&lt;span style=&quot;color: #d4d4d4&quot;&gt;.&lt;/span&gt;&lt;span style=&quot;color: #dcdcaa&quot;&gt;reset&lt;/span&gt;&lt;span style=&quot;color: #d4d4d4&quot;&gt;();&lt;/span&gt;&lt;/div&gt;&lt;div&gt;&lt;span style=&quot;color: #d4d4d4&quot;&gt;&amp;nbsp;&amp;nbsp;&amp;nbsp;&amp;nbsp;}&lt;/span&gt;&lt;/div&gt;&lt;br&gt;&lt;div&gt;&lt;span style=&quot;color: #d4d4d4&quot;&gt;&amp;nbsp;&amp;nbsp;&amp;nbsp;&amp;nbsp;&lt;/span&gt;&lt;span style=&quot;color: #569cd6&quot;&gt;public&lt;/span&gt;&lt;span style=&quot;color: #d4d4d4&quot;&gt;&amp;nbsp;&lt;/span&gt;&lt;span style=&quot;color: #dcdcaa&quot;&gt;reset&lt;/span&gt;&lt;span style=&quot;color: #d4d4d4&quot;&gt;()&lt;/span&gt;&lt;span style=&quot;color: #d4d4d4&quot;&gt;:&lt;/span&gt;&lt;span style=&quot;color: #d4d4d4&quot;&gt;&amp;nbsp;&lt;/span&gt;&lt;span style=&quot;color: #4ec9b0&quot;&gt;void&lt;/span&gt;&lt;span style=&quot;color: #d4d4d4&quot;&gt;&amp;nbsp;{&lt;/span&gt;&lt;/div&gt;&lt;div&gt;&lt;span style=&quot;color: #d4d4d4&quot;&gt;&amp;nbsp;&amp;nbsp;&amp;nbsp;&amp;nbsp;&amp;nbsp;&amp;nbsp;&amp;nbsp;&amp;nbsp;&lt;/span&gt;&lt;span style=&quot;color: #569cd6&quot;&gt;this&lt;/span&gt;&lt;span style=&quot;color: #d4d4d4&quot;&gt;.&lt;/span&gt;&lt;span style=&quot;color: #9cdcfe&quot;&gt;product&lt;/span&gt;&lt;span style=&quot;color: #d4d4d4&quot;&gt;&amp;nbsp;&lt;/span&gt;&lt;span style=&quot;color: #d4d4d4&quot;&gt;=&lt;/span&gt;&lt;span style=&quot;color: #d4d4d4&quot;&gt;&amp;nbsp;&lt;/span&gt;&lt;span style=&quot;color: #569cd6&quot;&gt;new&lt;/span&gt;&lt;span style=&quot;color: #d4d4d4&quot;&gt;&amp;nbsp;&lt;/span&gt;&lt;span style=&quot;color: #4ec9b0&quot;&gt;Product1&lt;/span&gt;&lt;span style=&quot;color: #d4d4d4&quot;&gt;();&lt;/span&gt;&lt;/div&gt;&lt;div&gt;&lt;span style=&quot;color: #d4d4d4&quot;&gt;&amp;nbsp;&amp;nbsp;&amp;nbsp;&amp;nbsp;}&lt;/span&gt;&lt;/div&gt;&lt;br&gt;&lt;div&gt;&lt;span style=&quot;color: #d4d4d4&quot;&gt;&amp;nbsp;&amp;nbsp;&amp;nbsp;&amp;nbsp;&lt;/span&gt;&lt;span style=&quot;color: #6a9955&quot;&gt;/**&lt;/span&gt;&lt;/div&gt;&lt;div&gt;&lt;span style=&quot;color: #6a9955&quot;&gt;&amp;nbsp;&amp;nbsp;&amp;nbsp;&amp;nbsp;&amp;nbsp;*&amp;nbsp;All&amp;nbsp;production&amp;nbsp;steps&amp;nbsp;work&amp;nbsp;with&amp;nbsp;the&amp;nbsp;same&amp;nbsp;product&amp;nbsp;instance.&lt;/span&gt;&lt;/div&gt;&lt;div&gt;&lt;span style=&quot;color: #6a9955&quot;&gt;&amp;nbsp;&amp;nbsp;&amp;nbsp;&amp;nbsp;&amp;nbsp;*/&lt;/span&gt;&lt;/div&gt;&lt;div&gt;&lt;span style=&quot;color: #d4d4d4&quot;&gt;&amp;nbsp;&amp;nbsp;&amp;nbsp;&amp;nbsp;&lt;/span&gt;&lt;span style=&quot;color: #569cd6&quot;&gt;public&lt;/span&gt;&lt;span style=&quot;color: #d4d4d4&quot;&gt;&amp;nbsp;&lt;/span&gt;&lt;span style=&quot;color: #dcdcaa&quot;&gt;producePartA&lt;/span&gt;&lt;span style=&quot;color: #d4d4d4&quot;&gt;()&lt;/span&gt;&lt;span style=&quot;color: #d4d4d4&quot;&gt;:&lt;/span&gt;&lt;span style=&quot;color: #d4d4d4&quot;&gt;&amp;nbsp;&lt;/span&gt;&lt;span style=&quot;color: #4ec9b0&quot;&gt;void&lt;/span&gt;&lt;span style=&quot;color: #d4d4d4&quot;&gt;&amp;nbsp;{&lt;/span&gt;&lt;/div&gt;&lt;div&gt;&lt;span style=&quot;color: #d4d4d4&quot;&gt;&amp;nbsp;&amp;nbsp;&amp;nbsp;&amp;nbsp;&amp;nbsp;&amp;nbsp;&amp;nbsp;&amp;nbsp;&lt;/span&gt;&lt;span style=&quot;color: #569cd6&quot;&gt;this&lt;/span&gt;&lt;span style=&quot;color: #d4d4d4&quot;&gt;.&lt;/span&gt;&lt;span style=&quot;color: #9cdcfe&quot;&gt;product&lt;/span&gt;&lt;span style=&quot;color: #d4d4d4&quot;&gt;.&lt;/span&gt;&lt;span style=&quot;color: #9cdcfe&quot;&gt;parts&lt;/span&gt;&lt;span style=&quot;color: #d4d4d4&quot;&gt;.&lt;/span&gt;&lt;span style=&quot;color: #dcdcaa&quot;&gt;push&lt;/span&gt;&lt;span style=&quot;color: #d4d4d4&quot;&gt;(&lt;/span&gt;&lt;span style=&quot;color: #ce9178&quot;&gt;&#39;PartA1&#39;&lt;/span&gt;&lt;span style=&quot;color: #d4d4d4&quot;&gt;);&lt;/span&gt;&lt;/div&gt;&lt;div&gt;&lt;span style=&quot;color: #d4d4d4&quot;&gt;&amp;nbsp;&amp;nbsp;&amp;nbsp;&amp;nbsp;}&lt;/span&gt;&lt;/div&gt;&lt;br&gt;&lt;div&gt;&lt;span style=&quot;color: #d4d4d4&quot;&gt;&amp;nbsp;&amp;nbsp;&amp;nbsp;&amp;nbsp;&lt;/span&gt;&lt;span style=&quot;color: #569cd6&quot;&gt;public&lt;/span&gt;&lt;span style=&quot;color: #d4d4d4&quot;&gt;&amp;nbsp;&lt;/span&gt;&lt;span style=&quot;color: #dcdcaa&quot;&gt;producePartB&lt;/span&gt;&lt;span style=&quot;color: #d4d4d4&quot;&gt;()&lt;/span&gt;&lt;span style=&quot;color: #d4d4d4&quot;&gt;:&lt;/span&gt;&lt;span style=&quot;color: #d4d4d4&quot;&gt;&amp;nbsp;&lt;/span&gt;&lt;span style=&quot;color: #4ec9b0&quot;&gt;void&lt;/span&gt;&lt;span style=&quot;color: #d4d4d4&quot;&gt;&amp;nbsp;{&lt;/span&gt;&lt;/div&gt;&lt;div&gt;&lt;span style=&quot;color: #d4d4d4&quot;&gt;&amp;nbsp;&amp;nbsp;&amp;nbsp;&amp;nbsp;&amp;nbsp;&amp;nbsp;&amp;nbsp;&amp;nbsp;&lt;/span&gt;&lt;span style=&quot;color: #569cd6&quot;&gt;this&lt;/span&gt;&lt;span style=&quot;color: #d4d4d4&quot;&gt;.&lt;/span&gt;&lt;span style=&quot;color: #9cdcfe&quot;&gt;product&lt;/span&gt;&lt;span style=&quot;color: #d4d4d4&quot;&gt;.&lt;/span&gt;&lt;span style=&quot;color: #9cdcfe&quot;&gt;parts&lt;/span&gt;&lt;span style=&quot;color: #d4d4d4&quot;&gt;.&lt;/span&gt;&lt;span style=&quot;color: #dcdcaa&quot;&gt;push&lt;/span&gt;&lt;span style=&quot;color: #d4d4d4&quot;&gt;(&lt;/span&gt;&lt;span style=&quot;color: #ce9178&quot;&gt;&#39;PartB1&#39;&lt;/span&gt;&lt;span style=&quot;color: #d4d4d4&quot;&gt;);&lt;/span&gt;&lt;/div&gt;&lt;div&gt;&lt;span style=&quot;color: #d4d4d4&quot;&gt;&amp;nbsp;&amp;nbsp;&amp;nbsp;&amp;nbsp;}&lt;/span&gt;&lt;/div&gt;&lt;br&gt;&lt;div&gt;&lt;span style=&quot;color: #d4d4d4&quot;&gt;&amp;nbsp;&amp;nbsp;&amp;nbsp;&amp;nbsp;&lt;/span&gt;&lt;span style=&quot;color: #569cd6&quot;&gt;public&lt;/span&gt;&lt;span style=&quot;color: #d4d4d4&quot;&gt;&amp;nbsp;&lt;/span&gt;&lt;span style=&quot;color: #dcdcaa&quot;&gt;producePartC&lt;/span&gt;&lt;span style=&quot;color: #d4d4d4&quot;&gt;()&lt;/span&gt;&lt;span style=&quot;color: #d4d4d4&quot;&gt;:&lt;/span&gt;&lt;span style=&quot;color: #d4d4d4&quot;&gt;&amp;nbsp;&lt;/span&gt;&lt;span style=&quot;color: #4ec9b0&quot;&gt;void&lt;/span&gt;&lt;span style=&quot;color: #d4d4d4&quot;&gt;&amp;nbsp;{&lt;/span&gt;&lt;/div&gt;&lt;div&gt;&lt;span style=&quot;color: #d4d4d4&quot;&gt;&amp;nbsp;&amp;nbsp;&amp;nbsp;&amp;nbsp;&amp;nbsp;&amp;nbsp;&amp;nbsp;&amp;nbsp;&lt;/span&gt;&lt;span style=&quot;color: #569cd6&quot;&gt;this&lt;/span&gt;&lt;span style=&quot;color: #d4d4d4&quot;&gt;.&lt;/span&gt;&lt;span style=&quot;color: #9cdcfe&quot;&gt;product&lt;/span&gt;&lt;span style=&quot;color: #d4d4d4&quot;&gt;.&lt;/span&gt;&lt;span style=&quot;color: #9cdcfe&quot;&gt;parts&lt;/span&gt;&lt;span style=&quot;color: #d4d4d4&quot;&gt;.&lt;/span&gt;&lt;span style=&quot;color: #dcdcaa&quot;&gt;push&lt;/span&gt;&lt;span style=&quot;color: #d4d4d4&quot;&gt;(&lt;/span&gt;&lt;span style=&quot;color: #ce9178&quot;&gt;&#39;PartC1&#39;&lt;/span&gt;&lt;span style=&quot;color: #d4d4d4&quot;&gt;);&lt;/span&gt;&lt;/div&gt;&lt;div&gt;&lt;span style=&quot;color: #d4d4d4&quot;&gt;&amp;nbsp;&amp;nbsp;&amp;nbsp;&amp;nbsp;}&lt;/span&gt;&lt;/div&gt;&lt;br&gt;&lt;div&gt;&lt;span style=&quot;color: #d4d4d4&quot;&gt;&amp;nbsp;&amp;nbsp;&amp;nbsp;&amp;nbsp;&lt;/span&gt;&lt;span style=&quot;color: #6a9955&quot;&gt;/**&lt;/span&gt;&lt;/div&gt;&lt;div&gt;&lt;span style=&quot;color: #6a9955&quot;&gt;&amp;nbsp;&amp;nbsp;&amp;nbsp;&amp;nbsp;&amp;nbsp;*&amp;nbsp;Concrete&amp;nbsp;Builders&amp;nbsp;are&amp;nbsp;supposed&amp;nbsp;to&amp;nbsp;provide&amp;nbsp;their&amp;nbsp;own&amp;nbsp;methods&amp;nbsp;for&lt;/span&gt;&lt;/div&gt;&lt;div&gt;&lt;span style=&quot;color: #6a9955&quot;&gt;&amp;nbsp;&amp;nbsp;&amp;nbsp;&amp;nbsp;&amp;nbsp;*&amp;nbsp;retrieving&amp;nbsp;results.&amp;nbsp;That&#39;s&amp;nbsp;because&amp;nbsp;various&amp;nbsp;types&amp;nbsp;of&amp;nbsp;builders&amp;nbsp;may&amp;nbsp;create&lt;/span&gt;&lt;/div&gt;&lt;div&gt;&lt;span style=&quot;color: #6a9955&quot;&gt;&amp;nbsp;&amp;nbsp;&amp;nbsp;&amp;nbsp;&amp;nbsp;*&amp;nbsp;entirely&amp;nbsp;different&amp;nbsp;products&amp;nbsp;that&amp;nbsp;don&#39;t&amp;nbsp;follow&amp;nbsp;the&amp;nbsp;same&amp;nbsp;interface.&lt;/span&gt;&lt;/div&gt;&lt;div&gt;&lt;span style=&quot;color: #6a9955&quot;&gt;&amp;nbsp;&amp;nbsp;&amp;nbsp;&amp;nbsp;&amp;nbsp;*&amp;nbsp;Therefore,&amp;nbsp;such&amp;nbsp;methods&amp;nbsp;cannot&amp;nbsp;be&amp;nbsp;declared&amp;nbsp;in&amp;nbsp;the&amp;nbsp;base&amp;nbsp;Builder&amp;nbsp;interface&lt;/span&gt;&lt;/div&gt;&lt;div&gt;&lt;span style=&quot;color: #6a9955&quot;&gt;&amp;nbsp;&amp;nbsp;&amp;nbsp;&amp;nbsp;&amp;nbsp;*&amp;nbsp;(at&amp;nbsp;least&amp;nbsp;in&amp;nbsp;a&amp;nbsp;statically&amp;nbsp;typed&amp;nbsp;programming&amp;nbsp;language).&lt;/span&gt;&lt;/div&gt;&lt;div&gt;&lt;span style=&quot;color: #6a9955&quot;&gt;&amp;nbsp;&amp;nbsp;&amp;nbsp;&amp;nbsp;&amp;nbsp;*&lt;/span&gt;&lt;/div&gt;&lt;div&gt;&lt;span style=&quot;color: #6a9955&quot;&gt;&amp;nbsp;&amp;nbsp;&amp;nbsp;&amp;nbsp;&amp;nbsp;*&amp;nbsp;Usually,&amp;nbsp;after&amp;nbsp;returning&amp;nbsp;the&amp;nbsp;end&amp;nbsp;result&amp;nbsp;to&amp;nbsp;the&amp;nbsp;client,&amp;nbsp;a&amp;nbsp;builder&amp;nbsp;instance&lt;/span&gt;&lt;/div&gt;&lt;div&gt;&lt;span style=&quot;color: #6a9955&quot;&gt;&amp;nbsp;&amp;nbsp;&amp;nbsp;&amp;nbsp;&amp;nbsp;*&amp;nbsp;is&amp;nbsp;expected&amp;nbsp;to&amp;nbsp;be&amp;nbsp;ready&amp;nbsp;to&amp;nbsp;start&amp;nbsp;producing&amp;nbsp;another&amp;nbsp;product.&amp;nbsp;That&#39;s&amp;nbsp;why&lt;/span&gt;&lt;/div&gt;&lt;div&gt;&lt;span style=&quot;color: #6a9955&quot;&gt;&amp;nbsp;&amp;nbsp;&amp;nbsp;&amp;nbsp;&amp;nbsp;*&amp;nbsp;it&#39;s&amp;nbsp;a&amp;nbsp;usual&amp;nbsp;practice&amp;nbsp;to&amp;nbsp;call&amp;nbsp;the&amp;nbsp;reset&amp;nbsp;method&amp;nbsp;at&amp;nbsp;the&amp;nbsp;end&amp;nbsp;of&amp;nbsp;the&lt;/span&gt;&lt;/div&gt;&lt;div&gt;&lt;span style=&quot;color: #6a9955&quot;&gt;&amp;nbsp;&amp;nbsp;&amp;nbsp;&amp;nbsp;&amp;nbsp;*&amp;nbsp;&lt;/span&gt;&lt;span style=&quot;color: #ce9178&quot;&gt;`getProduct`&lt;/span&gt;&lt;span style=&quot;color: #6a9955&quot;&gt;&amp;nbsp;method&amp;nbsp;body.&amp;nbsp;However,&amp;nbsp;this&amp;nbsp;behavior&amp;nbsp;is&amp;nbsp;not&amp;nbsp;mandatory,&amp;nbsp;and&lt;/span&gt;&lt;/div&gt;&lt;div&gt;&lt;span style=&quot;color: #6a9955&quot;&gt;&amp;nbsp;&amp;nbsp;&amp;nbsp;&amp;nbsp;&amp;nbsp;*&amp;nbsp;you&amp;nbsp;can&amp;nbsp;make&amp;nbsp;your&amp;nbsp;builders&amp;nbsp;wait&amp;nbsp;for&amp;nbsp;an&amp;nbsp;explicit&amp;nbsp;reset&amp;nbsp;call&amp;nbsp;from&amp;nbsp;the&lt;/span&gt;&lt;/div&gt;&lt;div&gt;&lt;span style=&quot;color: #6a9955&quot;&gt;&amp;nbsp;&amp;nbsp;&amp;nbsp;&amp;nbsp;&amp;nbsp;*&amp;nbsp;client&amp;nbsp;code&amp;nbsp;before&amp;nbsp;disposing&amp;nbsp;of&amp;nbsp;the&amp;nbsp;previous&amp;nbsp;result.&lt;/span&gt;&lt;/div&gt;&lt;div&gt;&lt;span style=&quot;color: #6a9955&quot;&gt;&amp;nbsp;&amp;nbsp;&amp;nbsp;&amp;nbsp;&amp;nbsp;*/&lt;/span&gt;&lt;/div&gt;&lt;div&gt;&lt;span style=&quot;color: #d4d4d4&quot;&gt;&amp;nbsp;&amp;nbsp;&amp;nbsp;&amp;nbsp;&lt;/span&gt;&lt;span style=&quot;color: #569cd6&quot;&gt;public&lt;/span&gt;&lt;span style=&quot;color: #d4d4d4&quot;&gt;&amp;nbsp;&lt;/span&gt;&lt;span style=&quot;color: #dcdcaa&quot;&gt;getProduct&lt;/span&gt;&lt;span style=&quot;color: #d4d4d4&quot;&gt;()&lt;/span&gt;&lt;span style=&quot;color: #d4d4d4&quot;&gt;:&lt;/span&gt;&lt;span style=&quot;color: #d4d4d4&quot;&gt;&amp;nbsp;&lt;/span&gt;&lt;span style=&quot;color: #4ec9b0&quot;&gt;Product1&lt;/span&gt;&lt;span style=&quot;color: #d4d4d4&quot;&gt;&amp;nbsp;{&lt;/span&gt;&lt;/div&gt;&lt;div&gt;&lt;span style=&quot;color: #d4d4d4&quot;&gt;&amp;nbsp;&amp;nbsp;&amp;nbsp;&amp;nbsp;&amp;nbsp;&amp;nbsp;&amp;nbsp;&amp;nbsp;&lt;/span&gt;&lt;span style=&quot;color: #569cd6&quot;&gt;const&lt;/span&gt;&lt;span style=&quot;color: #d4d4d4&quot;&gt;&amp;nbsp;&lt;/span&gt;&lt;span style=&quot;color: #9cdcfe&quot;&gt;result&lt;/span&gt;&lt;span style=&quot;color: #d4d4d4&quot;&gt;&amp;nbsp;&lt;/span&gt;&lt;span style=&quot;color: #d4d4d4&quot;&gt;=&lt;/span&gt;&lt;span style=&quot;color: #d4d4d4&quot;&gt;&amp;nbsp;&lt;/span&gt;&lt;span style=&quot;color: #569cd6&quot;&gt;this&lt;/span&gt;&lt;span style=&quot;color: #d4d4d4&quot;&gt;.&lt;/span&gt;&lt;span style=&quot;color: #9cdcfe&quot;&gt;product&lt;/span&gt;&lt;span style=&quot;color: #d4d4d4&quot;&gt;;&lt;/span&gt;&lt;/div&gt;&lt;div&gt;&lt;span style=&quot;color: #d4d4d4&quot;&gt;&amp;nbsp;&amp;nbsp;&amp;nbsp;&amp;nbsp;&amp;nbsp;&amp;nbsp;&amp;nbsp;&amp;nbsp;&lt;/span&gt;&lt;span style=&quot;color: #569cd6&quot;&gt;this&lt;/span&gt;&lt;span style=&quot;color: #d4d4d4&quot;&gt;.&lt;/span&gt;&lt;span style=&quot;color: #dcdcaa&quot;&gt;reset&lt;/span&gt;&lt;span style=&quot;color: #d4d4d4&quot;&gt;();&lt;/span&gt;&lt;/div&gt;&lt;div&gt;&lt;span style=&quot;color: #d4d4d4&quot;&gt;&amp;nbsp;&amp;nbsp;&amp;nbsp;&amp;nbsp;&amp;nbsp;&amp;nbsp;&amp;nbsp;&amp;nbsp;&lt;/span&gt;&lt;span style=&quot;color: #c586c0&quot;&gt;return&lt;/span&gt;&lt;span style=&quot;color: #d4d4d4&quot;&gt;&amp;nbsp;&lt;/span&gt;&lt;span style=&quot;color: #9cdcfe&quot;&gt;result&lt;/span&gt;&lt;span style=&quot;color: #d4d4d4&quot;&gt;;&lt;/span&gt;&lt;/div&gt;&lt;div&gt;&lt;span style=&quot;color: #d4d4d4&quot;&gt;&amp;nbsp;&amp;nbsp;&amp;nbsp;&amp;nbsp;}&lt;/span&gt;&lt;/div&gt;&lt;div&gt;&lt;span style=&quot;color: #d4d4d4&quot;&gt;}&lt;/span&gt;&lt;/div&gt;&lt;br&gt;&lt;div&gt;&lt;span style=&quot;color: #6a9955&quot;&gt;/**&lt;/span&gt;&lt;/div&gt;&lt;div&gt;&lt;span style=&quot;color: #6a9955&quot;&gt;&amp;nbsp;*&amp;nbsp;It&amp;nbsp;makes&amp;nbsp;sense&amp;nbsp;to&amp;nbsp;use&amp;nbsp;the&amp;nbsp;Builder&amp;nbsp;pattern&amp;nbsp;only&amp;nbsp;when&amp;nbsp;your&amp;nbsp;products&amp;nbsp;are&amp;nbsp;quite&lt;/span&gt;&lt;/div&gt;&lt;div&gt;&lt;span style=&quot;color: #6a9955&quot;&gt;&amp;nbsp;*&amp;nbsp;complex&amp;nbsp;and&amp;nbsp;require&amp;nbsp;extensive&amp;nbsp;configuration.&lt;/span&gt;&lt;/div&gt;&lt;div&gt;&lt;span style=&quot;color: #6a9955&quot;&gt;&amp;nbsp;*&lt;/span&gt;&lt;/div&gt;&lt;div&gt;&lt;span style=&quot;color: #6a9955&quot;&gt;&amp;nbsp;*&amp;nbsp;Unlike&amp;nbsp;in&amp;nbsp;other&amp;nbsp;creational&amp;nbsp;patterns,&amp;nbsp;different&amp;nbsp;concrete&amp;nbsp;builders&amp;nbsp;can&amp;nbsp;produce&lt;/span&gt;&lt;/div&gt;&lt;div&gt;&lt;span style=&quot;color: #6a9955&quot;&gt;&amp;nbsp;*&amp;nbsp;unrelated&amp;nbsp;products.&amp;nbsp;In&amp;nbsp;other&amp;nbsp;words,&amp;nbsp;results&amp;nbsp;of&amp;nbsp;various&amp;nbsp;builders&amp;nbsp;may&amp;nbsp;not&lt;/span&gt;&lt;/div&gt;&lt;div&gt;&lt;span style=&quot;color: #6a9955&quot;&gt;&amp;nbsp;*&amp;nbsp;always&amp;nbsp;follow&amp;nbsp;the&amp;nbsp;same&amp;nbsp;interface.&lt;/span&gt;&lt;/div&gt;&lt;div&gt;&lt;span style=&quot;color: #6a9955&quot;&gt;&amp;nbsp;*/&lt;/span&gt;&lt;/div&gt;&lt;div&gt;&lt;span style=&quot;color: #569cd6&quot;&gt;class&lt;/span&gt;&lt;span style=&quot;color: #d4d4d4&quot;&gt;&amp;nbsp;&lt;/span&gt;&lt;span style=&quot;color: #4ec9b0&quot;&gt;Product1&lt;/span&gt;&lt;span style=&quot;color: #d4d4d4&quot;&gt;&amp;nbsp;{&lt;/span&gt;&lt;/div&gt;&lt;div&gt;&lt;span style=&quot;color: #d4d4d4&quot;&gt;&amp;nbsp;&amp;nbsp;&amp;nbsp;&amp;nbsp;&lt;/span&gt;&lt;span style=&quot;color: #569cd6&quot;&gt;public&lt;/span&gt;&lt;span style=&quot;color: #d4d4d4&quot;&gt;&amp;nbsp;&lt;/span&gt;&lt;span style=&quot;color: #9cdcfe&quot;&gt;parts&lt;/span&gt;&lt;span style=&quot;color: #d4d4d4&quot;&gt;:&lt;/span&gt;&lt;span style=&quot;color: #d4d4d4&quot;&gt;&amp;nbsp;&lt;/span&gt;&lt;span style=&quot;color: #4ec9b0&quot;&gt;string&lt;/span&gt;&lt;span style=&quot;color: #d4d4d4&quot;&gt;[]&amp;nbsp;&lt;/span&gt;&lt;span style=&quot;color: #d4d4d4&quot;&gt;=&lt;/span&gt;&lt;span style=&quot;color: #d4d4d4&quot;&gt;&amp;nbsp;[];&lt;/span&gt;&lt;/div&gt;&lt;br&gt;&lt;div&gt;&lt;span style=&quot;color: #d4d4d4&quot;&gt;&amp;nbsp;&amp;nbsp;&amp;nbsp;&amp;nbsp;&lt;/span&gt;&lt;span style=&quot;color: #569cd6&quot;&gt;public&lt;/span&gt;&lt;span style=&quot;color: #d4d4d4&quot;&gt;&amp;nbsp;&lt;/span&gt;&lt;span style=&quot;color: #dcdcaa&quot;&gt;listParts&lt;/span&gt;&lt;span style=&quot;color: #d4d4d4&quot;&gt;()&lt;/span&gt;&lt;span style=&quot;color: #d4d4d4&quot;&gt;:&lt;/span&gt;&lt;span style=&quot;color: #d4d4d4&quot;&gt;&amp;nbsp;&lt;/span&gt;&lt;span style=&quot;color: #4ec9b0&quot;&gt;void&lt;/span&gt;&lt;span style=&quot;color: #d4d4d4&quot;&gt;&amp;nbsp;{&lt;/span&gt;&lt;/div&gt;&lt;div&gt;&lt;span style=&quot;color: #d4d4d4&quot;&gt;&amp;nbsp;&amp;nbsp;&amp;nbsp;&amp;nbsp;&amp;nbsp;&amp;nbsp;&amp;nbsp;&amp;nbsp;&lt;/span&gt;&lt;span style=&quot;color: #4ec9b0&quot;&gt;console&lt;/span&gt;&lt;span style=&quot;color: #d4d4d4&quot;&gt;.&lt;/span&gt;&lt;span style=&quot;color: #dcdcaa&quot;&gt;log&lt;/span&gt;&lt;span style=&quot;color: #d4d4d4&quot;&gt;(&lt;/span&gt;&lt;span style=&quot;color: #ce9178&quot;&gt;`Product&amp;nbsp;parts:&amp;nbsp;&lt;/span&gt;&lt;span style=&quot;color: #569cd6&quot;&gt;${&lt;/span&gt;&lt;span style=&quot;color: #569cd6&quot;&gt;this&lt;/span&gt;&lt;span style=&quot;color: #d4d4d4&quot;&gt;.&lt;/span&gt;&lt;span style=&quot;color: #9cdcfe&quot;&gt;parts&lt;/span&gt;&lt;span style=&quot;color: #d4d4d4&quot;&gt;.&lt;/span&gt;&lt;span style=&quot;color: #dcdcaa&quot;&gt;join&lt;/span&gt;&lt;span style=&quot;color: #d4d4d4&quot;&gt;(&lt;/span&gt;&lt;span style=&quot;color: #ce9178&quot;&gt;&#39;,&amp;nbsp;&#39;&lt;/span&gt;&lt;span style=&quot;color: #d4d4d4&quot;&gt;)&lt;/span&gt;&lt;span style=&quot;color: #569cd6&quot;&gt;}&lt;/span&gt;&lt;span style=&quot;color: #d7ba7d&quot;&gt;\n&lt;/span&gt;&lt;span style=&quot;color: #ce9178&quot;&gt;`&lt;/span&gt;&lt;span style=&quot;color: #d4d4d4&quot;&gt;);&lt;/span&gt;&lt;/div&gt;&lt;div&gt;&lt;span style=&quot;color: #d4d4d4&quot;&gt;&amp;nbsp;&amp;nbsp;&amp;nbsp;&amp;nbsp;}&lt;/span&gt;&lt;/div&gt;&lt;div&gt;&lt;span style=&quot;color: #d4d4d4&quot;&gt;}&lt;/span&gt;&lt;/div&gt;&lt;br&gt;&lt;div&gt;&lt;span style=&quot;color: #6a9955&quot;&gt;/**&lt;/span&gt;&lt;/div&gt;&lt;div&gt;&lt;span style=&quot;color: #6a9955&quot;&gt;&amp;nbsp;*&amp;nbsp;The&amp;nbsp;Director&amp;nbsp;is&amp;nbsp;only&amp;nbsp;responsible&amp;nbsp;for&amp;nbsp;executing&amp;nbsp;the&amp;nbsp;building&amp;nbsp;steps&amp;nbsp;in&amp;nbsp;a&lt;/span&gt;&lt;/div&gt;&lt;div&gt;&lt;span style=&quot;color: #6a9955&quot;&gt;&amp;nbsp;*&amp;nbsp;particular&amp;nbsp;sequence.&amp;nbsp;It&amp;nbsp;is&amp;nbsp;helpful&amp;nbsp;when&amp;nbsp;producing&amp;nbsp;products&amp;nbsp;according&amp;nbsp;to&amp;nbsp;a&lt;/span&gt;&lt;/div&gt;&lt;div&gt;&lt;span style=&quot;color: #6a9955&quot;&gt;&amp;nbsp;*&amp;nbsp;specific&amp;nbsp;order&amp;nbsp;or&amp;nbsp;configuration.&amp;nbsp;Strictly&amp;nbsp;speaking,&amp;nbsp;the&amp;nbsp;Director&amp;nbsp;class&amp;nbsp;is&lt;/span&gt;&lt;/div&gt;&lt;div&gt;&lt;span style=&quot;color: #6a9955&quot;&gt;&amp;nbsp;*&amp;nbsp;optional,&amp;nbsp;since&amp;nbsp;the&amp;nbsp;client&amp;nbsp;can&amp;nbsp;control&amp;nbsp;builders&amp;nbsp;directly.&lt;/span&gt;&lt;/div&gt;&lt;div&gt;&lt;span style=&quot;color: #6a9955&quot;&gt;&amp;nbsp;*/&lt;/span&gt;&lt;/div&gt;&lt;div&gt;&lt;span style=&quot;color: #569cd6&quot;&gt;class&lt;/span&gt;&lt;span style=&quot;color: #d4d4d4&quot;&gt;&amp;nbsp;&lt;/span&gt;&lt;span style=&quot;color: #4ec9b0&quot;&gt;Director&lt;/span&gt;&lt;span style=&quot;color: #d4d4d4&quot;&gt;&amp;nbsp;{&lt;/span&gt;&lt;/div&gt;&lt;div&gt;&lt;span style=&quot;color: #d4d4d4&quot;&gt;&amp;nbsp;&amp;nbsp;&amp;nbsp;&amp;nbsp;&lt;/span&gt;&lt;span style=&quot;color: #569cd6&quot;&gt;private&lt;/span&gt;&lt;span style=&quot;color: #d4d4d4&quot;&gt;&amp;nbsp;&lt;/span&gt;&lt;span style=&quot;color: #9cdcfe&quot;&gt;builder&lt;/span&gt;&lt;span style=&quot;color: #d4d4d4&quot;&gt;:&lt;/span&gt;&lt;span style=&quot;color: #d4d4d4&quot;&gt;&amp;nbsp;&lt;/span&gt;&lt;span style=&quot;color: #4ec9b0&quot;&gt;Builder&lt;/span&gt;&lt;span style=&quot;color: #d4d4d4&quot;&gt;;&lt;/span&gt;&lt;/div&gt;&lt;br&gt;&lt;div&gt;&lt;span style=&quot;color: #d4d4d4&quot;&gt;&amp;nbsp;&amp;nbsp;&amp;nbsp;&amp;nbsp;&lt;/span&gt;&lt;span style=&quot;color: #6a9955&quot;&gt;/**&lt;/span&gt;&lt;/div&gt;&lt;div&gt;&lt;span style=&quot;color: #6a9955&quot;&gt;&amp;nbsp;&amp;nbsp;&amp;nbsp;&amp;nbsp;&amp;nbsp;*&amp;nbsp;The&amp;nbsp;Director&amp;nbsp;works&amp;nbsp;with&amp;nbsp;any&amp;nbsp;builder&amp;nbsp;instance&amp;nbsp;that&amp;nbsp;the&amp;nbsp;client&amp;nbsp;code&amp;nbsp;passes&lt;/span&gt;&lt;/div&gt;&lt;div&gt;&lt;span style=&quot;color: #6a9955&quot;&gt;&amp;nbsp;&amp;nbsp;&amp;nbsp;&amp;nbsp;&amp;nbsp;*&amp;nbsp;to&amp;nbsp;it.&amp;nbsp;This&amp;nbsp;way,&amp;nbsp;the&amp;nbsp;client&amp;nbsp;code&amp;nbsp;may&amp;nbsp;alter&amp;nbsp;the&amp;nbsp;final&amp;nbsp;type&amp;nbsp;of&amp;nbsp;the&amp;nbsp;newly&lt;/span&gt;&lt;/div&gt;&lt;div&gt;&lt;span style=&quot;color: #6a9955&quot;&gt;&amp;nbsp;&amp;nbsp;&amp;nbsp;&amp;nbsp;&amp;nbsp;*&amp;nbsp;assembled&amp;nbsp;product.&lt;/span&gt;&lt;/div&gt;&lt;div&gt;&lt;span style=&quot;color: #6a9955&quot;&gt;&amp;nbsp;&amp;nbsp;&amp;nbsp;&amp;nbsp;&amp;nbsp;*/&lt;/span&gt;&lt;/div&gt;&lt;div&gt;&lt;span style=&quot;color: #d4d4d4&quot;&gt;&amp;nbsp;&amp;nbsp;&amp;nbsp;&amp;nbsp;&lt;/span&gt;&lt;span style=&quot;color: #569cd6&quot;&gt;public&lt;/span&gt;&lt;span style=&quot;color: #d4d4d4&quot;&gt;&amp;nbsp;&lt;/span&gt;&lt;span style=&quot;color: #dcdcaa&quot;&gt;setBuilder&lt;/span&gt;&lt;span style=&quot;color: #d4d4d4&quot;&gt;(&lt;/span&gt;&lt;span style=&quot;color: #9cdcfe&quot;&gt;builder&lt;/span&gt;&lt;span style=&quot;color: #d4d4d4&quot;&gt;:&lt;/span&gt;&lt;span style=&quot;color: #d4d4d4&quot;&gt;&amp;nbsp;&lt;/span&gt;&lt;span style=&quot;color: #4ec9b0&quot;&gt;Builder&lt;/span&gt;&lt;span style=&quot;color: #d4d4d4&quot;&gt;)&lt;/span&gt;&lt;span style=&quot;color: #d4d4d4&quot;&gt;:&lt;/span&gt;&lt;span style=&quot;color: #d4d4d4&quot;&gt;&amp;nbsp;&lt;/span&gt;&lt;span style=&quot;color: #4ec9b0&quot;&gt;void&lt;/span&gt;&lt;span style=&quot;color: #d4d4d4&quot;&gt;&amp;nbsp;{&lt;/span&gt;&lt;/div&gt;&lt;div&gt;&lt;span style=&quot;color: #d4d4d4&quot;&gt;&amp;nbsp;&amp;nbsp;&amp;nbsp;&amp;nbsp;&amp;nbsp;&amp;nbsp;&amp;nbsp;&amp;nbsp;&lt;/span&gt;&lt;span style=&quot;color: #569cd6&quot;&gt;this&lt;/span&gt;&lt;span style=&quot;color: #d4d4d4&quot;&gt;.&lt;/span&gt;&lt;span style=&quot;color: #9cdcfe&quot;&gt;builder&lt;/span&gt;&lt;span style=&quot;color: #d4d4d4&quot;&gt;&amp;nbsp;&lt;/span&gt;&lt;span style=&quot;color: #d4d4d4&quot;&gt;=&lt;/span&gt;&lt;span style=&quot;color: #d4d4d4&quot;&gt;&amp;nbsp;&lt;/span&gt;&lt;span style=&quot;color: #9cdcfe&quot;&gt;builder&lt;/span&gt;&lt;span style=&quot;color: #d4d4d4&quot;&gt;;&lt;/span&gt;&lt;/div&gt;&lt;div&gt;&lt;span style=&quot;color: #d4d4d4&quot;&gt;&amp;nbsp;&amp;nbsp;&amp;nbsp;&amp;nbsp;}&lt;/span&gt;&lt;/div&gt;&lt;br&gt;&lt;div&gt;&lt;span style=&quot;color: #d4d4d4&quot;&gt;&amp;nbsp;&amp;nbsp;&amp;nbsp;&amp;nbsp;&lt;/span&gt;&lt;span style=&quot;color: #6a9955&quot;&gt;/**&lt;/span&gt;&lt;/div&gt;&lt;div&gt;&lt;span style=&quot;color: #6a9955&quot;&gt;&amp;nbsp;&amp;nbsp;&amp;nbsp;&amp;nbsp;&amp;nbsp;*&amp;nbsp;The&amp;nbsp;Director&amp;nbsp;can&amp;nbsp;construct&amp;nbsp;several&amp;nbsp;product&amp;nbsp;variations&amp;nbsp;using&amp;nbsp;the&amp;nbsp;same&lt;/span&gt;&lt;/div&gt;&lt;div&gt;&lt;span style=&quot;color: #6a9955&quot;&gt;&amp;nbsp;&amp;nbsp;&amp;nbsp;&amp;nbsp;&amp;nbsp;*&amp;nbsp;building&amp;nbsp;steps.&lt;/span&gt;&lt;/div&gt;&lt;div&gt;&lt;span style=&quot;color: #6a9955&quot;&gt;&amp;nbsp;&amp;nbsp;&amp;nbsp;&amp;nbsp;&amp;nbsp;*/&lt;/span&gt;&lt;/div&gt;&lt;div&gt;&lt;span style=&quot;color: #d4d4d4&quot;&gt;&amp;nbsp;&amp;nbsp;&amp;nbsp;&amp;nbsp;&lt;/span&gt;&lt;span style=&quot;color: #569cd6&quot;&gt;public&lt;/span&gt;&lt;span style=&quot;color: #d4d4d4&quot;&gt;&amp;nbsp;&lt;/span&gt;&lt;span style=&quot;color: #dcdcaa&quot;&gt;buildMinimalViableProduct&lt;/span&gt;&lt;span style=&quot;color: #d4d4d4&quot;&gt;()&lt;/span&gt;&lt;span style=&quot;color: #d4d4d4&quot;&gt;:&lt;/span&gt;&lt;span style=&quot;color: #d4d4d4&quot;&gt;&amp;nbsp;&lt;/span&gt;&lt;span style=&quot;color: #4ec9b0&quot;&gt;void&lt;/span&gt;&lt;span style=&quot;color: #d4d4d4&quot;&gt;&amp;nbsp;{&lt;/span&gt;&lt;/div&gt;&lt;div&gt;&lt;span style=&quot;color: #d4d4d4&quot;&gt;&amp;nbsp;&amp;nbsp;&amp;nbsp;&amp;nbsp;&amp;nbsp;&amp;nbsp;&amp;nbsp;&amp;nbsp;&lt;/span&gt;&lt;span style=&quot;color: #569cd6&quot;&gt;this&lt;/span&gt;&lt;span style=&quot;color: #d4d4d4&quot;&gt;.&lt;/span&gt;&lt;span style=&quot;color: #9cdcfe&quot;&gt;builder&lt;/span&gt;&lt;span style=&quot;color: #d4d4d4&quot;&gt;.&lt;/span&gt;&lt;span style=&quot;color: #dcdcaa&quot;&gt;producePartA&lt;/span&gt;&lt;span style=&quot;color: #d4d4d4&quot;&gt;();&lt;/span&gt;&lt;/div&gt;&lt;div&gt;&lt;span style=&quot;color: #d4d4d4&quot;&gt;&amp;nbsp;&amp;nbsp;&amp;nbsp;&amp;nbsp;}&lt;/span&gt;&lt;/div&gt;&lt;br&gt;&lt;div&gt;&lt;span style=&quot;color: #d4d4d4&quot;&gt;&amp;nbsp;&amp;nbsp;&amp;nbsp;&amp;nbsp;&lt;/span&gt;&lt;span style=&quot;color: #569cd6&quot;&gt;public&lt;/span&gt;&lt;span style=&quot;color: #d4d4d4&quot;&gt;&amp;nbsp;&lt;/span&gt;&lt;span style=&quot;color: #dcdcaa&quot;&gt;buildFullFeaturedProduct&lt;/span&gt;&lt;span style=&quot;color: #d4d4d4&quot;&gt;()&lt;/span&gt;&lt;span style=&quot;color: #d4d4d4&quot;&gt;:&lt;/span&gt;&lt;span style=&quot;color: #d4d4d4&quot;&gt;&amp;nbsp;&lt;/span&gt;&lt;span style=&quot;color: #4ec9b0&quot;&gt;void&lt;/span&gt;&lt;span style=&quot;color: #d4d4d4&quot;&gt;&amp;nbsp;{&lt;/span&gt;&lt;/div&gt;&lt;div&gt;&lt;span style=&quot;color: #d4d4d4&quot;&gt;&amp;nbsp;&amp;nbsp;&amp;nbsp;&amp;nbsp;&amp;nbsp;&amp;nbsp;&amp;nbsp;&amp;nbsp;&lt;/span&gt;&lt;span style=&quot;color: #569cd6&quot;&gt;this&lt;/span&gt;&lt;span style=&quot;color: #d4d4d4&quot;&gt;.&lt;/span&gt;&lt;span style=&quot;color: #9cdcfe&quot;&gt;builder&lt;/span&gt;&lt;span style=&quot;color: #d4d4d4&quot;&gt;.&lt;/span&gt;&lt;span style=&quot;color: #dcdcaa&quot;&gt;producePartA&lt;/span&gt;&lt;span style=&quot;color: #d4d4d4&quot;&gt;();&lt;/span&gt;&lt;/div&gt;&lt;div&gt;&lt;span style=&quot;color: #d4d4d4&quot;&gt;&amp;nbsp;&amp;nbsp;&amp;nbsp;&amp;nbsp;&amp;nbsp;&amp;nbsp;&amp;nbsp;&amp;nbsp;&lt;/span&gt;&lt;span style=&quot;color: #569cd6&quot;&gt;this&lt;/span&gt;&lt;span style=&quot;color: #d4d4d4&quot;&gt;.&lt;/span&gt;&lt;span style=&quot;color: #9cdcfe&quot;&gt;builder&lt;/span&gt;&lt;span style=&quot;color: #d4d4d4&quot;&gt;.&lt;/span&gt;&lt;span style=&quot;color: #dcdcaa&quot;&gt;producePartB&lt;/span&gt;&lt;span style=&quot;color: #d4d4d4&quot;&gt;();&lt;/span&gt;&lt;/div&gt;&lt;div&gt;&lt;span style=&quot;color: #d4d4d4&quot;&gt;&amp;nbsp;&amp;nbsp;&amp;nbsp;&amp;nbsp;&amp;nbsp;&amp;nbsp;&amp;nbsp;&amp;nbsp;&lt;/span&gt;&lt;span style=&quot;color: #569cd6&quot;&gt;this&lt;/span&gt;&lt;span style=&quot;color: #d4d4d4&quot;&gt;.&lt;/span&gt;&lt;span style=&quot;color: #9cdcfe&quot;&gt;builder&lt;/span&gt;&lt;span style=&quot;color: #d4d4d4&quot;&gt;.&lt;/span&gt;&lt;span style=&quot;color: #dcdcaa&quot;&gt;producePartC&lt;/span&gt;&lt;span style=&quot;color: #d4d4d4&quot;&gt;();&lt;/span&gt;&lt;/div&gt;&lt;div&gt;&lt;span style=&quot;color: #d4d4d4&quot;&gt;&amp;nbsp;&amp;nbsp;&amp;nbsp;&amp;nbsp;}&lt;/span&gt;&lt;/div&gt;&lt;div&gt;&lt;span style=&quot;color: #d4d4d4&quot;&gt;}&lt;/span&gt;&lt;/div&gt;&lt;br&gt;&lt;div&gt;&lt;span style=&quot;color: #6a9955&quot;&gt;/**&lt;/span&gt;&lt;/div&gt;&lt;div&gt;&lt;span style=&quot;color: #6a9955&quot;&gt;&amp;nbsp;*&amp;nbsp;The&amp;nbsp;client&amp;nbsp;code&amp;nbsp;creates&amp;nbsp;a&amp;nbsp;builder&amp;nbsp;object,&amp;nbsp;passes&amp;nbsp;it&amp;nbsp;to&amp;nbsp;the&amp;nbsp;director&amp;nbsp;and&amp;nbsp;then&lt;/span&gt;&lt;/div&gt;&lt;div&gt;&lt;span style=&quot;color: #6a9955&quot;&gt;&amp;nbsp;*&amp;nbsp;initiates&amp;nbsp;the&amp;nbsp;construction&amp;nbsp;process.&amp;nbsp;The&amp;nbsp;end&amp;nbsp;result&amp;nbsp;is&amp;nbsp;retrieved&amp;nbsp;from&amp;nbsp;the&lt;/span&gt;&lt;/div&gt;&lt;div&gt;&lt;span style=&quot;color: #6a9955&quot;&gt;&amp;nbsp;*&amp;nbsp;builder&amp;nbsp;object.&lt;/span&gt;&lt;/div&gt;&lt;div&gt;&lt;span style=&quot;color: #6a9955&quot;&gt;&amp;nbsp;*/&lt;/span&gt;&lt;/div&gt;&lt;div&gt;&lt;span style=&quot;color: #569cd6&quot;&gt;function&lt;/span&gt;&lt;span style=&quot;color: #d4d4d4&quot;&gt;&amp;nbsp;&lt;/span&gt;&lt;span style=&quot;color: #dcdcaa&quot;&gt;clientCode&lt;/span&gt;&lt;span style=&quot;color: #d4d4d4&quot;&gt;(&lt;/span&gt;&lt;span style=&quot;color: #9cdcfe&quot;&gt;director&lt;/span&gt;&lt;span style=&quot;color: #d4d4d4&quot;&gt;:&lt;/span&gt;&lt;span style=&quot;color: #d4d4d4&quot;&gt;&amp;nbsp;&lt;/span&gt;&lt;span style=&quot;color: #4ec9b0&quot;&gt;Director&lt;/span&gt;&lt;span style=&quot;color: #d4d4d4&quot;&gt;)&amp;nbsp;{&lt;/span&gt;&lt;/div&gt;&lt;div&gt;&lt;span style=&quot;color: #d4d4d4&quot;&gt;&amp;nbsp;&amp;nbsp;&amp;nbsp;&amp;nbsp;&lt;/span&gt;&lt;span style=&quot;color: #569cd6&quot;&gt;const&lt;/span&gt;&lt;span style=&quot;color: #d4d4d4&quot;&gt;&amp;nbsp;&lt;/span&gt;&lt;span style=&quot;color: #9cdcfe&quot;&gt;builder&lt;/span&gt;&lt;span style=&quot;color: #d4d4d4&quot;&gt;&amp;nbsp;&lt;/span&gt;&lt;span style=&quot;color: #d4d4d4&quot;&gt;=&lt;/span&gt;&lt;span style=&quot;color: #d4d4d4&quot;&gt;&amp;nbsp;&lt;/span&gt;&lt;span style=&quot;color: #569cd6&quot;&gt;new&lt;/span&gt;&lt;span style=&quot;color: #d4d4d4&quot;&gt;&amp;nbsp;&lt;/span&gt;&lt;span style=&quot;color: #4ec9b0&quot;&gt;ConcreteBuilder1&lt;/span&gt;&lt;span style=&quot;color: #d4d4d4&quot;&gt;();&lt;/span&gt;&lt;/div&gt;&lt;div&gt;&lt;span style=&quot;color: #d4d4d4&quot;&gt;&amp;nbsp;&amp;nbsp;&amp;nbsp;&amp;nbsp;&lt;/span&gt;&lt;span style=&quot;color: #9cdcfe&quot;&gt;director&lt;/span&gt;&lt;span style=&quot;color: #d4d4d4&quot;&gt;.&lt;/span&gt;&lt;span style=&quot;color: #dcdcaa&quot;&gt;setBuilder&lt;/span&gt;&lt;span style=&quot;color: #d4d4d4&quot;&gt;(&lt;/span&gt;&lt;span style=&quot;color: #9cdcfe&quot;&gt;builder&lt;/span&gt;&lt;span style=&quot;color: #d4d4d4&quot;&gt;);&lt;/span&gt;&lt;/div&gt;&lt;br&gt;&lt;div&gt;&lt;span style=&quot;color: #d4d4d4&quot;&gt;&amp;nbsp;&amp;nbsp;&amp;nbsp;&amp;nbsp;&lt;/span&gt;&lt;span style=&quot;color: #4ec9b0&quot;&gt;console&lt;/span&gt;&lt;span style=&quot;color: #d4d4d4&quot;&gt;.&lt;/span&gt;&lt;span style=&quot;color: #dcdcaa&quot;&gt;log&lt;/span&gt;&lt;span style=&quot;color: #d4d4d4&quot;&gt;(&lt;/span&gt;&lt;span style=&quot;color: #ce9178&quot;&gt;&#39;Standard&amp;nbsp;basic&amp;nbsp;product:&#39;&lt;/span&gt;&lt;span style=&quot;color: #d4d4d4&quot;&gt;);&lt;/span&gt;&lt;/div&gt;&lt;div&gt;&lt;span style=&quot;color: #d4d4d4&quot;&gt;&amp;nbsp;&amp;nbsp;&amp;nbsp;&amp;nbsp;&lt;/span&gt;&lt;span style=&quot;color: #9cdcfe&quot;&gt;director&lt;/span&gt;&lt;span style=&quot;color: #d4d4d4&quot;&gt;.&lt;/span&gt;&lt;span style=&quot;color: #dcdcaa&quot;&gt;buildMinimalViableProduct&lt;/span&gt;&lt;span style=&quot;color: #d4d4d4&quot;&gt;();&lt;/span&gt;&lt;/div&gt;&lt;div&gt;&lt;span style=&quot;color: #d4d4d4&quot;&gt;&amp;nbsp;&amp;nbsp;&amp;nbsp;&amp;nbsp;&lt;/span&gt;&lt;span style=&quot;color: #9cdcfe&quot;&gt;builder&lt;/span&gt;&lt;span style=&quot;color: #d4d4d4&quot;&gt;.&lt;/span&gt;&lt;span style=&quot;color: #dcdcaa&quot;&gt;getProduct&lt;/span&gt;&lt;span style=&quot;color: #d4d4d4&quot;&gt;().&lt;/span&gt;&lt;span style=&quot;color: #dcdcaa&quot;&gt;listParts&lt;/span&gt;&lt;span style=&quot;color: #d4d4d4&quot;&gt;();&lt;/span&gt;&lt;/div&gt;&lt;br&gt;&lt;div&gt;&lt;span style=&quot;color: #d4d4d4&quot;&gt;&amp;nbsp;&amp;nbsp;&amp;nbsp;&amp;nbsp;&lt;/span&gt;&lt;span style=&quot;color: #4ec9b0&quot;&gt;console&lt;/span&gt;&lt;span style=&quot;color: #d4d4d4&quot;&gt;.&lt;/span&gt;&lt;span style=&quot;color: #dcdcaa&quot;&gt;log&lt;/span&gt;&lt;span style=&quot;color: #d4d4d4&quot;&gt;(&lt;/span&gt;&lt;span style=&quot;color: #ce9178&quot;&gt;&#39;Standard&amp;nbsp;full&amp;nbsp;featured&amp;nbsp;product:&#39;&lt;/span&gt;&lt;span style=&quot;color: #d4d4d4&quot;&gt;);&lt;/span&gt;&lt;/div&gt;&lt;div&gt;&lt;span style=&quot;color: #d4d4d4&quot;&gt;&amp;nbsp;&amp;nbsp;&amp;nbsp;&amp;nbsp;&lt;/span&gt;&lt;span style=&quot;color: #9cdcfe&quot;&gt;director&lt;/span&gt;&lt;span style=&quot;color: #d4d4d4&quot;&gt;.&lt;/span&gt;&lt;span style=&quot;color: #dcdcaa&quot;&gt;buildFullFeaturedProduct&lt;/span&gt;&lt;span style=&quot;color: #d4d4d4&quot;&gt;();&lt;/span&gt;&lt;/div&gt;&lt;div&gt;&lt;span style=&quot;color: #d4d4d4&quot;&gt;&amp;nbsp;&amp;nbsp;&amp;nbsp;&amp;nbsp;&lt;/span&gt;&lt;span style=&quot;color: #9cdcfe&quot;&gt;builder&lt;/span&gt;&lt;span style=&quot;color: #d4d4d4&quot;&gt;.&lt;/span&gt;&lt;span style=&quot;color: #dcdcaa&quot;&gt;getProduct&lt;/span&gt;&lt;span style=&quot;color: #d4d4d4&quot;&gt;().&lt;/span&gt;&lt;span style=&quot;color: #dcdcaa&quot;&gt;listParts&lt;/span&gt;&lt;span style=&quot;color: #d4d4d4&quot;&gt;();&lt;/span&gt;&lt;/div&gt;&lt;br&gt;&lt;div&gt;&lt;span style=&quot;color: #d4d4d4&quot;&gt;&amp;nbsp;&amp;nbsp;&amp;nbsp;&amp;nbsp;&lt;/span&gt;&lt;span style=&quot;color: #6a9955&quot;&gt;//&amp;nbsp;Remember,&amp;nbsp;the&amp;nbsp;Builder&amp;nbsp;pattern&amp;nbsp;can&amp;nbsp;be&amp;nbsp;used&amp;nbsp;without&amp;nbsp;a&amp;nbsp;Director&amp;nbsp;class.&lt;/span&gt;&lt;/div&gt;&lt;div&gt;&lt;span style=&quot;color: #d4d4d4&quot;&gt;&amp;nbsp;&amp;nbsp;&amp;nbsp;&amp;nbsp;&lt;/span&gt;&lt;span style=&quot;color: #4ec9b0&quot;&gt;console&lt;/span&gt;&lt;span style=&quot;color: #d4d4d4&quot;&gt;.&lt;/span&gt;&lt;span style=&quot;color: #dcdcaa&quot;&gt;log&lt;/span&gt;&lt;span style=&quot;color: #d4d4d4&quot;&gt;(&lt;/span&gt;&lt;span style=&quot;color: #ce9178&quot;&gt;&#39;Custom&amp;nbsp;product:&#39;&lt;/span&gt;&lt;span style=&quot;color: #d4d4d4&quot;&gt;);&lt;/span&gt;&lt;/div&gt;&lt;div&gt;&lt;span style=&quot;color: #d4d4d4&quot;&gt;&amp;nbsp;&amp;nbsp;&amp;nbsp;&amp;nbsp;&lt;/span&gt;&lt;span style=&quot;color: #9cdcfe&quot;&gt;builder&lt;/span&gt;&lt;span style=&quot;color: #d4d4d4&quot;&gt;.&lt;/span&gt;&lt;span style=&quot;color: #dcdcaa&quot;&gt;producePartA&lt;/span&gt;&lt;span style=&quot;color: #d4d4d4&quot;&gt;();&lt;/span&gt;&lt;/div&gt;&lt;div&gt;&lt;span style=&quot;color: #d4d4d4&quot;&gt;&amp;nbsp;&amp;nbsp;&amp;nbsp;&amp;nbsp;&lt;/span&gt;&lt;span style=&quot;color: #9cdcfe&quot;&gt;builder&lt;/span&gt;&lt;span style=&quot;color: #d4d4d4&quot;&gt;.&lt;/span&gt;&lt;span style=&quot;color: #dcdcaa&quot;&gt;producePartC&lt;/span&gt;&lt;span style=&quot;color: #d4d4d4&quot;&gt;();&lt;/span&gt;&lt;/div&gt;&lt;div&gt;&lt;span style=&quot;color: #d4d4d4&quot;&gt;&amp;nbsp;&amp;nbsp;&amp;nbsp;&amp;nbsp;&lt;/span&gt;&lt;span style=&quot;color: #9cdcfe&quot;&gt;builder&lt;/span&gt;&lt;span style=&quot;color: #d4d4d4&quot;&gt;.&lt;/span&gt;&lt;span style=&quot;color: #dcdcaa&quot;&gt;getProduct&lt;/span&gt;&lt;span style=&quot;color: #d4d4d4&quot;&gt;().&lt;/span&gt;&lt;span style=&quot;color: #dcdcaa&quot;&gt;listParts&lt;/span&gt;&lt;span style=&quot;color: #d4d4d4&quot;&gt;();&lt;/span&gt;&lt;/div&gt;&lt;div&gt;&lt;span style=&quot;color: #d4d4d4&quot;&gt;}&lt;/span&gt;&lt;/div&gt;&lt;br&gt;&lt;div&gt;&lt;span style=&quot;color: #569cd6&quot;&gt;const&lt;/span&gt;&lt;span style=&quot;color: #d4d4d4&quot;&gt;&amp;nbsp;&lt;/span&gt;&lt;span style=&quot;color: #9cdcfe&quot;&gt;director&lt;/span&gt;&lt;span style=&quot;color: #d4d4d4&quot;&gt;&amp;nbsp;&lt;/span&gt;&lt;span style=&quot;color: #d4d4d4&quot;&gt;=&lt;/span&gt;&lt;span style=&quot;color: #d4d4d4&quot;&gt;&amp;nbsp;&lt;/span&gt;&lt;span style=&quot;color: #569cd6&quot;&gt;new&lt;/span&gt;&lt;span style=&quot;color: #d4d4d4&quot;&gt;&amp;nbsp;&lt;/span&gt;&lt;span style=&quot;color: #4ec9b0&quot;&gt;Director&lt;/span&gt;&lt;span style=&quot;color: #d4d4d4&quot;&gt;();&lt;/span&gt;&lt;/div&gt;&lt;div&gt;&lt;span style=&quot;color: #dcdcaa&quot;&gt;clientCode&lt;/span&gt;&lt;span style=&quot;color: #d4d4d4&quot;&gt;(&lt;/span&gt;&lt;span style=&quot;color: #9cdcfe&quot;&gt;director&lt;/span&gt;&lt;span style=&quot;color: #d4d4d4&quot;&gt;);&lt;/span&gt;&lt;/div&gt;&lt;/div&gt;" style="text;whiteSpace=wrap;html=1;" vertex="1" parent="1">
          <mxGeometry x="640" width="550" height="2690" as="geometry" />
        </mxCell>
      </root>
    </mxGraphModel>
  </diagram>
</mxfile>
